<?xml version="1.0" encoding="UTF-8" standalone="no"?>
<!DOCTYPE svg PUBLIC "-//W3C//DTD SVG 1.1//EN"
 "http://www.w3.org/Graphics/SVG/1.1/DTD/svg11.dtd">
<!-- Generated by graphviz version 14.1.2 (20260124.0452)
 -->
<!-- Title: dependency&#45;cruiser output Pages: 1 -->
<svg width="713pt" height="556pt"
 viewBox="0.00 0.00 713.00 556.00" xmlns="http://www.w3.org/2000/svg" xmlns:xlink="http://www.w3.org/1999/xlink">
<g id="graph0" class="graph" transform="scale(1 1) rotate(0) translate(4 551.55)">
<title>dependency&#45;cruiser output</title>
<polygon fill="white" stroke="none" points="-4,4 -4,-551.55 709.25,-551.55 709.25,4 -4,4"/>
<g id="clust1" class="cluster">
<title>cluster_src</title>
<path fill="#ffffff" stroke="black" stroke-width="2" d="M20,-13.55C20,-13.55 685.25,-13.55 685.25,-13.55 691.25,-13.55 697.25,-19.55 697.25,-25.55 697.25,-25.55 697.25,-527.55 697.25,-527.55 697.25,-533.55 691.25,-539.55 685.25,-539.55 685.25,-539.55 20,-539.55 20,-539.55 14,-539.55 8,-533.55 8,-527.55 8,-527.55 8,-25.55 8,-25.55 8,-19.55 14,-13.55 20,-13.55"/>
<text xml:space="preserve" text-anchor="middle" x="352.62" y="-527" font-family="Helvetica,sans-Serif" font-weight="bold" font-size="9.00">src</text>
</g>
<g id="clust2" class="cluster">
<title>cluster_src/core</title>
<path fill="#ffffff" stroke="black" stroke-width="2" d="M433,-21.55C433,-21.55 677.25,-21.55 677.25,-21.55 683.25,-21.55 689.25,-27.55 689.25,-33.55 689.25,-33.55 689.25,-297.55 689.25,-297.55 689.25,-303.55 683.25,-309.55 677.25,-309.55 677.25,-309.55 433,-309.55 433,-309.55 427,-309.55 421,-303.55 421,-297.55 421,-297.55 421,-33.55 421,-33.55 421,-27.55 427,-21.55 433,-21.55"/>
<text xml:space="preserve" text-anchor="middle" x="555.12" y="-297" font-family="Helvetica,sans-Serif" font-weight="bold" font-size="9.00">core</text>
</g>
<g id="clust3" class="cluster">
<title>cluster_src/core/behaviors</title>
<path fill="#ffffff" stroke="black" stroke-width="2" d="M460.5,-55.55C460.5,-55.55 669.25,-55.55 669.25,-55.55 675.25,-55.55 681.25,-61.55 681.25,-67.55 681.25,-67.55 681.25,-125.55 681.25,-125.55 681.25,-131.55 675.25,-137.55 669.25,-137.55 669.25,-137.55 460.5,-137.55 460.5,-137.55 454.5,-137.55 448.5,-131.55 448.5,-125.55 448.5,-125.55 448.5,-67.55 448.5,-67.55 448.5,-61.55 454.5,-55.55 460.5,-55.55"/>
<text xml:space="preserve" text-anchor="middle" x="564.88" y="-125" font-family="Helvetica,sans-Serif" font-weight="bold" font-size="9.00">behaviors</text>
</g>
<g id="clust4" class="cluster">
<title>cluster_src/core/renderers</title>
<path fill="#ffffff" stroke="black" stroke-width="2" d="M441,-145.55C441,-145.55 664.38,-145.55 664.38,-145.55 670.38,-145.55 676.38,-151.55 676.38,-157.55 676.38,-157.55 676.38,-245.55 676.38,-245.55 676.38,-251.55 670.38,-257.55 664.38,-257.55 664.38,-257.55 441,-257.55 441,-257.55 435,-257.55 429,-251.55 429,-245.55 429,-245.55 429,-157.55 429,-157.55 429,-151.55 435,-145.55 441,-145.55"/>
<text xml:space="preserve" text-anchor="middle" x="552.69" y="-245" font-family="Helvetica,sans-Serif" font-weight="bold" font-size="9.00">renderers</text>
</g>
<g id="clust5" class="cluster">
<title>cluster_src/particles</title>
<path fill="#ffffff" stroke="black" stroke-width="2" d="M248.38,-191.55C248.38,-191.55 401,-191.55 401,-191.55 407,-191.55 413,-197.55 413,-203.55 413,-203.55 413,-321.55 413,-321.55 413,-327.55 407,-333.55 401,-333.55 401,-333.55 248.38,-333.55 248.38,-333.55 242.38,-333.55 236.38,-327.55 236.38,-321.55 236.38,-321.55 236.38,-203.55 236.38,-203.55 236.38,-197.55 242.38,-191.55 248.38,-191.55"/>
<text xml:space="preserve" text-anchor="middle" x="324.69" y="-321" font-family="Helvetica,sans-Serif" font-weight="bold" font-size="9.00">particles</text>
</g>
<g id="clust6" class="cluster">
<title>cluster_src/physics</title>
<path fill="#ffffff" stroke="black" stroke-width="2" d="M90,-401.55C90,-401.55 331,-401.55 331,-401.55 337,-401.55 343,-407.55 343,-413.55 343,-413.55 343,-441.55 343,-441.55 343,-447.55 337,-453.55 331,-453.55 331,-453.55 90,-453.55 90,-453.55 84,-453.55 78,-447.55 78,-441.55 78,-441.55 78,-413.55 78,-413.55 78,-407.55 84,-401.55 90,-401.55"/>
<text xml:space="preserve" text-anchor="middle" x="210.5" y="-441" font-family="Helvetica,sans-Serif" font-weight="bold" font-size="9.00">physics</text>
</g>
<g id="clust7" class="cluster">
<title>cluster_src/reactions</title>
<path fill="#ffffff" stroke="black" stroke-width="2" d="M103.75,-31.55C103.75,-31.55 323.88,-31.55 323.88,-31.55 329.88,-31.55 335.88,-37.55 335.88,-43.55 335.88,-43.55 335.88,-161.55 335.88,-161.55 335.88,-167.55 329.88,-173.55 323.88,-173.55 323.88,-173.55 103.75,-173.55 103.75,-173.55 97.75,-173.55 91.75,-167.55 91.75,-161.55 91.75,-161.55 91.75,-43.55 91.75,-43.55 91.75,-37.55 97.75,-31.55 103.75,-31.55"/>
<text xml:space="preserve" text-anchor="middle" x="213.81" y="-161" font-family="Helvetica,sans-Serif" font-weight="bold" font-size="9.00">reactions</text>
</g>
<g id="clust8" class="cluster">
<title>cluster_src/reactions/rules</title>
<path fill="#ffffff" stroke="black" stroke-width="2" d="M111.75,-65.55C111.75,-65.55 200.75,-65.55 200.75,-65.55 206.75,-65.55 212.75,-71.55 212.75,-77.55 212.75,-77.55 212.75,-135.55 212.75,-135.55 212.75,-141.55 206.75,-147.55 200.75,-147.55 200.75,-147.55 111.75,-147.55 111.75,-147.55 105.75,-147.55 99.75,-141.55 99.75,-135.55 99.75,-135.55 99.75,-77.55 99.75,-77.55 99.75,-71.55 105.75,-65.55 111.75,-65.55"/>
<text xml:space="preserve" text-anchor="middle" x="156.25" y="-135" font-family="Helvetica,sans-Serif" font-weight="bold" font-size="9.00">rules</text>
</g>
<g id="clust9" class="cluster">
<title>cluster_src/simulator</title>
<path fill="#ffffff" stroke="black" stroke-width="2" d="M118.5,-341.55C118.5,-341.55 310.25,-341.55 310.25,-341.55 316.25,-341.55 322.25,-347.55 322.25,-353.55 322.25,-353.55 322.25,-381.55 322.25,-381.55 322.25,-387.55 316.25,-393.55 310.25,-393.55 310.25,-393.55 118.5,-393.55 118.5,-393.55 112.5,-393.55 106.5,-387.55 106.5,-381.55 106.5,-381.55 106.5,-353.55 106.5,-353.55 106.5,-347.55 112.5,-341.55 118.5,-341.55"/>
<text xml:space="preserve" text-anchor="middle" x="214.38" y="-381" font-family="Helvetica,sans-Serif" font-weight="bold" font-size="9.00">simulator</text>
</g>
<g id="clust10" class="cluster">
<title>cluster_src/util</title>
<path fill="#ffffff" stroke="black" stroke-width="2" d="M119.62,-461.55C119.62,-461.55 192.88,-461.55 192.88,-461.55 198.88,-461.55 204.88,-467.55 204.88,-473.55 204.88,-473.55 204.88,-501.55 204.88,-501.55 204.88,-507.55 198.88,-513.55 192.88,-513.55 192.88,-513.55 119.62,-513.55 119.62,-513.55 113.62,-513.55 107.62,-507.55 107.62,-501.55 107.62,-501.55 107.62,-473.55 107.62,-473.55 107.62,-467.55 113.62,-461.55 119.62,-461.55"/>
<text xml:space="preserve" text-anchor="middle" x="156.25" y="-501" font-family="Helvetica,sans-Serif" font-weight="bold" font-size="9.00">util</text>
</g>
<!-- src/core/Particle.ts -->
<g id="node1" class="node">
<title>src/core/Particle.ts</title>
<g id="a_node1"><a xlink:href="src/core/Particle.ts" xlink:title="Particle.ts">
<path fill="#ddfeff" stroke="black" d="M518.33,-283.42C518.33,-283.42 474.42,-283.42 474.42,-283.42 471.46,-283.42 468.5,-280.46 468.5,-277.51 468.5,-277.51 468.5,-271.59 468.5,-271.59 468.5,-268.63 471.46,-265.67 474.42,-265.67 474.42,-265.67 518.33,-265.67 518.33,-265.67 521.29,-265.67 524.25,-268.63 524.25,-271.59 524.25,-271.59 524.25,-277.51 524.25,-277.51 524.25,-280.46 521.29,-283.42 518.33,-283.42"/>
<text xml:space="preserve" text-anchor="start" x="476.5" y="-270.87" font-family="Helvetica,sans-Serif" font-size="9.00">Particle.ts</text>
</a>
</g>
</g>
<!-- src/core/Random.ts -->
<g id="node2" class="node">
<title>src/core/Random.ts</title>
<g id="a_node2"><a xlink:href="src/core/Random.ts" xlink:title="Random.ts">
<path fill="#ddfeff" stroke="black" d="M645.21,-47.42C645.21,-47.42 596.79,-47.42 596.79,-47.42 593.83,-47.42 590.88,-44.46 590.88,-41.51 590.88,-41.51 590.88,-35.59 590.88,-35.59 590.88,-32.63 593.83,-29.67 596.79,-29.67 596.79,-29.67 645.21,-29.67 645.21,-29.67 648.17,-29.67 651.12,-32.63 651.12,-35.59 651.12,-35.59 651.12,-41.51 651.12,-41.51 651.12,-44.46 648.17,-47.42 645.21,-47.42"/>
<text xml:space="preserve" text-anchor="start" x="598.88" y="-34.87" font-family="Helvetica,sans-Serif" font-size="9.00">Random.ts</text>
</a>
</g>
</g>
<!-- src/core/behaviors/FallAndSway.ts -->
<g id="node3" class="node">
<title>src/core/behaviors/FallAndSway.ts</title>
<g id="a_node3"><a xlink:href="src/core/behaviors/FallAndSway.ts" xlink:title="FallAndSway.ts">
<path fill="#ddfeff" stroke="black" d="M529.96,-111.42C529.96,-111.42 462.79,-111.42 462.79,-111.42 459.83,-111.42 456.88,-108.46 456.88,-105.51 456.88,-105.51 456.88,-99.59 456.88,-99.59 456.88,-96.63 459.83,-93.67 462.79,-93.67 462.79,-93.67 529.96,-93.67 529.96,-93.67 532.92,-93.67 535.88,-96.63 535.88,-99.59 535.88,-99.59 535.88,-105.51 535.88,-105.51 535.88,-108.46 532.92,-111.42 529.96,-111.42"/>
<text xml:space="preserve" text-anchor="start" x="464.88" y="-98.87" font-family="Helvetica,sans-Serif" font-size="9.00">FallAndSway.ts</text>
</a>
</g>
</g>
<!-- src/core/behaviors/FallAndSway.ts&#45;&gt;src/core/Random.ts -->
<g id="edge1" class="edge">
<title>src/core/behaviors/FallAndSway.ts&#45;&gt;src/core/Random.ts</title>
<path fill="none" stroke="#000000" stroke-opacity="0.200000" d="M536.12,-98.16C543.28,-95.89 550.23,-92.52 555.75,-87.55 568.08,-76.44 556.51,-63.75 568.75,-52.55 572.96,-48.7 578.13,-45.89 583.55,-43.84"/>
<polygon fill="none" stroke="#000000" stroke-opacity="0.200000" points="583.96,-45.92 589.05,-42.1 582.7,-41.91 583.96,-45.92"/>
</g>
<!-- src/core/behaviors/MovementBehavior.ts -->
<g id="node4" class="node">
<title>src/core/behaviors/MovementBehavior.ts</title>
<g id="a_node4"><a xlink:href="src/core/behaviors/MovementBehavior.ts" xlink:title="MovementBehavior.ts">
<path fill="#ddfeff" stroke="black" d="M667.33,-111.42C667.33,-111.42 574.67,-111.42 574.67,-111.42 571.71,-111.42 568.75,-108.46 568.75,-105.51 568.75,-105.51 568.75,-99.59 568.75,-99.59 568.75,-96.63 571.71,-93.67 574.67,-93.67 574.67,-93.67 667.33,-93.67 667.33,-93.67 670.29,-93.67 673.25,-96.63 673.25,-99.59 673.25,-99.59 673.25,-105.51 673.25,-105.51 673.25,-108.46 670.29,-111.42 667.33,-111.42"/>
<text xml:space="preserve" text-anchor="start" x="576.75" y="-98.87" font-family="Helvetica,sans-Serif" font-size="9.00">MovementBehavior.ts</text>
</a>
</g>
</g>
<!-- src/core/behaviors/FallAndSway.ts&#45;&gt;src/core/behaviors/MovementBehavior.ts -->
<g id="edge2" class="edge">
<title>src/core/behaviors/FallAndSway.ts&#45;&gt;src/core/behaviors/MovementBehavior.ts</title>
<path fill="none" stroke="#000000" stroke-opacity="0.200000" d="M536.17,-102.55C544.1,-102.55 552.6,-102.55 561.05,-102.55"/>
<polygon fill="none" stroke="#000000" stroke-opacity="0.200000" points="560.93,-104.65 566.93,-102.55 560.93,-100.45 560.93,-104.65"/>
</g>
<!-- src/core/behaviors/RandomWalk.ts -->
<g id="node5" class="node">
<title>src/core/behaviors/RandomWalk.ts</title>
<g id="a_node5"><a xlink:href="src/core/behaviors/RandomWalk.ts" xlink:title="RandomWalk.ts">
<path fill="#ddfeff" stroke="black" d="M530.33,-81.42C530.33,-81.42 462.42,-81.42 462.42,-81.42 459.46,-81.42 456.5,-78.46 456.5,-75.51 456.5,-75.51 456.5,-69.59 456.5,-69.59 456.5,-66.63 459.46,-63.67 462.42,-63.67 462.42,-63.67 530.33,-63.67 530.33,-63.67 533.29,-63.67 536.25,-66.63 536.25,-69.59 536.25,-69.59 536.25,-75.51 536.25,-75.51 536.25,-78.46 533.29,-81.42 530.33,-81.42"/>
<text xml:space="preserve" text-anchor="start" x="464.5" y="-68.87" font-family="Helvetica,sans-Serif" font-size="9.00">RandomWalk.ts</text>
</a>
</g>
</g>
<!-- src/core/behaviors/RandomWalk.ts&#45;&gt;src/core/Random.ts -->
<g id="edge3" class="edge">
<title>src/core/behaviors/RandomWalk.ts&#45;&gt;src/core/Random.ts</title>
<path fill="none" stroke="#000000" stroke-opacity="0.200000" d="M536.74,-65.34C543.18,-63.72 549.72,-61.79 555.75,-59.55 561.9,-57.26 562.66,-54.98 568.75,-52.55 573.52,-50.64 578.64,-48.9 583.73,-47.35"/>
<polygon fill="none" stroke="#000000" stroke-opacity="0.200000" points="583.99,-49.46 589.17,-45.76 582.82,-45.42 583.99,-49.46"/>
</g>
<!-- src/core/behaviors/RandomWalk.ts&#45;&gt;src/core/behaviors/MovementBehavior.ts -->
<g id="edge4" class="edge">
<title>src/core/behaviors/RandomWalk.ts&#45;&gt;src/core/behaviors/MovementBehavior.ts</title>
<path fill="none" stroke="#000000" stroke-opacity="0.200000" d="M535.5,-81.88C547.96,-84.92 561.91,-88.34 574.84,-91.5"/>
<polygon fill="none" stroke="#000000" stroke-opacity="0.200000" points="574.1,-93.48 580.43,-92.87 575.1,-89.4 574.1,-93.48"/>
</g>
<!-- src/core/renderers/DropletRenderer.ts -->
<g id="node6" class="node">
<title>src/core/renderers/DropletRenderer.ts</title>
<g id="a_node6"><a xlink:href="src/core/renderers/DropletRenderer.ts" xlink:title="DropletRenderer.ts">
<path fill="#ddfeff" stroke="black" d="M537.46,-231.42C537.46,-231.42 455.29,-231.42 455.29,-231.42 452.33,-231.42 449.38,-228.46 449.38,-225.51 449.38,-225.51 449.38,-219.59 449.38,-219.59 449.38,-216.63 452.33,-213.67 455.29,-213.67 455.29,-213.67 537.46,-213.67 537.46,-213.67 540.42,-213.67 543.38,-216.63 543.38,-219.59 543.38,-219.59 543.38,-225.51 543.38,-225.51 543.38,-228.46 540.42,-231.42 537.46,-231.42"/>
<text xml:space="preserve" text-anchor="start" x="457.38" y="-218.87" font-family="Helvetica,sans-Serif" font-size="9.00">DropletRenderer.ts</text>
</a>
</g>
</g>
<!-- src/core/renderers/ParticleRenderer.ts -->
<g id="node7" class="node">
<title>src/core/renderers/ParticleRenderer.ts</title>
<g id="a_node7"><a xlink:href="src/core/renderers/ParticleRenderer.ts" xlink:title="ParticleRenderer.ts">
<path fill="#ddfeff" stroke="black" d="M662.46,-231.42C662.46,-231.42 579.54,-231.42 579.54,-231.42 576.58,-231.42 573.62,-228.46 573.62,-225.51 573.62,-225.51 573.62,-219.59 573.62,-219.59 573.62,-216.63 576.58,-213.67 579.54,-213.67 579.54,-213.67 662.46,-213.67 662.46,-213.67 665.42,-213.67 668.38,-216.63 668.38,-219.59 668.38,-219.59 668.38,-225.51 668.38,-225.51 668.38,-228.46 665.42,-231.42 662.46,-231.42"/>
<text xml:space="preserve" text-anchor="start" x="581.62" y="-218.87" font-family="Helvetica,sans-Serif" font-size="9.00">ParticleRenderer.ts</text>
</a>
</g>
</g>
<!-- src/core/renderers/DropletRenderer.ts&#45;&gt;src/core/renderers/ParticleRenderer.ts -->
<g id="edge5" class="edge">
<title>src/core/renderers/DropletRenderer.ts&#45;&gt;src/core/renderers/ParticleRenderer.ts</title>
<path fill="none" stroke="#000000" stroke-opacity="0.200000" d="M543.73,-222.55C550.96,-222.55 558.48,-222.55 565.85,-222.55"/>
<polygon fill="none" stroke="#000000" stroke-opacity="0.200000" points="565.65,-224.65 571.65,-222.55 565.65,-220.45 565.65,-224.65"/>
</g>
<!-- src/core/renderers/SubscriptTextRenderer.ts -->
<g id="node8" class="node">
<title>src/core/renderers/SubscriptTextRenderer.ts</title>
<g id="a_node8"><a xlink:href="src/core/renderers/SubscriptTextRenderer.ts" xlink:title="SubscriptTextRenderer.ts">
<path fill="#ddfeff" stroke="black" d="M549.83,-171.42C549.83,-171.42 442.92,-171.42 442.92,-171.42 439.96,-171.42 437,-168.46 437,-165.51 437,-165.51 437,-159.59 437,-159.59 437,-156.63 439.96,-153.67 442.92,-153.67 442.92,-153.67 549.83,-153.67 549.83,-153.67 552.79,-153.67 555.75,-156.63 555.75,-159.59 555.75,-159.59 555.75,-165.51 555.75,-165.51 555.75,-168.46 552.79,-171.42 549.83,-171.42"/>
<text xml:space="preserve" text-anchor="start" x="445" y="-158.87" font-family="Helvetica,sans-Serif" font-size="9.00">SubscriptTextRenderer.ts</text>
</a>
</g>
</g>
<!-- src/core/renderers/SubscriptTextRenderer.ts&#45;&gt;src/core/renderers/ParticleRenderer.ts -->
<g id="edge6" class="edge">
<title>src/core/renderers/SubscriptTextRenderer.ts&#45;&gt;src/core/renderers/ParticleRenderer.ts</title>
<path fill="none" stroke="#000000" stroke-opacity="0.200000" d="M541.02,-171.91C546.08,-173.53 551.09,-175.4 555.75,-177.55 573.4,-185.67 591.33,-198.71 603.75,-208.67"/>
<polygon fill="none" stroke="#000000" stroke-opacity="0.200000" points="602.23,-210.14 608.2,-212.32 604.89,-206.89 602.23,-210.14"/>
</g>
<!-- src/core/renderers/TextRenderer.ts -->
<g id="node9" class="node">
<title>src/core/renderers/TextRenderer.ts</title>
<g id="a_node9"><a xlink:href="src/core/renderers/TextRenderer.ts" xlink:title="TextRenderer.ts">
<path fill="#ddfeff" stroke="black" d="M530.71,-201.42C530.71,-201.42 462.04,-201.42 462.04,-201.42 459.08,-201.42 456.12,-198.46 456.12,-195.51 456.12,-195.51 456.12,-189.59 456.12,-189.59 456.12,-186.63 459.08,-183.67 462.04,-183.67 462.04,-183.67 530.71,-183.67 530.71,-183.67 533.67,-183.67 536.62,-186.63 536.62,-189.59 536.62,-189.59 536.62,-195.51 536.62,-195.51 536.62,-198.46 533.67,-201.42 530.71,-201.42"/>
<text xml:space="preserve" text-anchor="start" x="464.12" y="-188.87" font-family="Helvetica,sans-Serif" font-size="9.00">TextRenderer.ts</text>
</a>
</g>
</g>
<!-- src/core/renderers/TextRenderer.ts&#45;&gt;src/core/renderers/ParticleRenderer.ts -->
<g id="edge7" class="edge">
<title>src/core/renderers/TextRenderer.ts&#45;&gt;src/core/renderers/ParticleRenderer.ts</title>
<path fill="none" stroke="#000000" stroke-opacity="0.200000" d="M535.5,-201.88C547.96,-204.92 561.91,-208.34 574.84,-211.5"/>
<polygon fill="none" stroke="#000000" stroke-opacity="0.200000" points="574.1,-213.48 580.43,-212.87 575.1,-209.4 574.1,-213.48"/>
</g>
<!-- src/main.ts -->
<g id="node10" class="node">
<title>src/main.ts</title>
<g id="a_node10"><a xlink:href="src/main.ts" xlink:title="main.ts">
<path fill="#ddfeff" stroke="black" d="M64.08,-217.42C64.08,-217.42 21.92,-217.42 21.92,-217.42 18.96,-217.42 16,-214.46 16,-211.51 16,-211.51 16,-205.59 16,-205.59 16,-202.63 18.96,-199.67 21.92,-199.67 21.92,-199.67 64.08,-199.67 64.08,-199.67 67.04,-199.67 70,-202.63 70,-205.59 70,-205.59 70,-211.51 70,-211.51 70,-214.46 67.04,-217.42 64.08,-217.42"/>
<text xml:space="preserve" text-anchor="start" x="28.38" y="-204.87" font-family="Helvetica,sans-Serif" font-size="9.00">main.ts</text>
</a>
</g>
</g>
<!-- src/main.ts&#45;&gt;src/core/Random.ts -->
<g id="edge8" class="edge">
<title>src/main.ts&#45;&gt;src/core/Random.ts</title>
<path fill="none" stroke="#000000" stroke-width="2" stroke-opacity="0.200000" d="M44.28,-199.31C45.52,-165.76 51.63,-51.05 78,-28.55 148.43,31.56 193.66,-22.55 286.25,-22.55 286.25,-22.55 286.25,-22.55 379,-22.55 450.89,-22.55 534.59,-29.72 582.03,-34.46"/>
<polygon fill="#000000" fill-opacity="0.200000" stroke="#000000" stroke-width="2" stroke-opacity="0.200000" points="581.54,-36.53 587.72,-35.04 581.97,-32.35 581.54,-36.53"/>
</g>
<!-- src/particles/ParticleFactory.ts -->
<g id="node11" class="node">
<title>src/particles/ParticleFactory.ts</title>
<g id="a_node11"><a xlink:href="src/particles/ParticleFactory.ts" xlink:title="ParticleFactory.ts">
<path fill="#ddfeff" stroke="black" d="M324.21,-217.42C324.21,-217.42 250.29,-217.42 250.29,-217.42 247.33,-217.42 244.38,-214.46 244.38,-211.51 244.38,-211.51 244.38,-205.59 244.38,-205.59 244.38,-202.63 247.33,-199.67 250.29,-199.67 250.29,-199.67 324.21,-199.67 324.21,-199.67 327.17,-199.67 330.12,-202.63 330.12,-205.59 330.12,-205.59 330.12,-211.51 330.12,-211.51 330.12,-214.46 327.17,-217.42 324.21,-217.42"/>
<text xml:space="preserve" text-anchor="start" x="252.38" y="-204.87" font-family="Helvetica,sans-Serif" font-size="9.00">ParticleFactory.ts</text>
</a>
</g>
</g>
<!-- src/main.ts&#45;&gt;src/particles/ParticleFactory.ts -->
<g id="edge9" class="edge">
<title>src/main.ts&#45;&gt;src/particles/ParticleFactory.ts</title>
<path fill="none" stroke="#000000" stroke-width="2" stroke-opacity="0.200000" d="M70.39,-208.55C109.83,-208.55 184.92,-208.55 235.3,-208.55"/>
<polygon fill="#000000" fill-opacity="0.200000" stroke="#000000" stroke-width="2" stroke-opacity="0.200000" points="235.06,-210.65 241.06,-208.55 235.06,-206.45 235.06,-210.65"/>
</g>
<!-- src/physics/BruteForceCollisionDetector.ts -->
<g id="node12" class="node">
<title>src/physics/BruteForceCollisionDetector.ts</title>
<g id="a_node12"><a xlink:href="src/physics/BruteForceCollisionDetector.ts" xlink:title="BruteForceCollisionDetector.ts">
<path fill="#ddfeff" stroke="black" d="M220.58,-427.42C220.58,-427.42 91.92,-427.42 91.92,-427.42 88.96,-427.42 86,-424.46 86,-421.51 86,-421.51 86,-415.59 86,-415.59 86,-412.63 88.96,-409.67 91.92,-409.67 91.92,-409.67 220.58,-409.67 220.58,-409.67 223.54,-409.67 226.5,-412.63 226.5,-415.59 226.5,-415.59 226.5,-421.51 226.5,-421.51 226.5,-424.46 223.54,-427.42 220.58,-427.42"/>
<text xml:space="preserve" text-anchor="start" x="94" y="-414.87" font-family="Helvetica,sans-Serif" font-size="9.00">BruteForceCollisionDetector.ts</text>
</a>
</g>
</g>
<!-- src/main.ts&#45;&gt;src/physics/BruteForceCollisionDetector.ts -->
<g id="edge10" class="edge">
<title>src/main.ts&#45;&gt;src/physics/BruteForceCollisionDetector.ts</title>
<path fill="none" stroke="#000000" stroke-width="2" stroke-opacity="0.200000" d="M44.22,-217.54C45.28,-252.48 50.95,-378.61 78,-405.55 78.29,-405.84 78.58,-406.12 78.88,-406.4"/>
<polygon fill="#000000" fill-opacity="0.200000" stroke="#000000" stroke-width="2" stroke-opacity="0.200000" points="77.16,-407.73 83.2,-409.7 79.71,-404.39 77.16,-407.73"/>
</g>
<!-- src/reactions/ReactionRegistry.ts -->
<g id="node13" class="node">
<title>src/reactions/ReactionRegistry.ts</title>
<g id="a_node13"><a xlink:href="src/reactions/ReactionRegistry.ts" xlink:title="ReactionRegistry.ts">
<path fill="#ddfeff" stroke="black" d="M198.08,-57.42C198.08,-57.42 114.42,-57.42 114.42,-57.42 111.46,-57.42 108.5,-54.46 108.5,-51.51 108.5,-51.51 108.5,-45.59 108.5,-45.59 108.5,-42.63 111.46,-39.67 114.42,-39.67 114.42,-39.67 198.08,-39.67 198.08,-39.67 201.04,-39.67 204,-42.63 204,-45.59 204,-45.59 204,-51.51 204,-51.51 204,-54.46 201.04,-57.42 198.08,-57.42"/>
<text xml:space="preserve" text-anchor="start" x="116.5" y="-44.87" font-family="Helvetica,sans-Serif" font-size="9.00">ReactionRegistry.ts</text>
</a>
</g>
</g>
<!-- src/main.ts&#45;&gt;src/reactions/ReactionRegistry.ts -->
<g id="edge11" class="edge">
<title>src/main.ts&#45;&gt;src/reactions/ReactionRegistry.ts</title>
<path fill="none" stroke="#000000" stroke-width="2" stroke-opacity="0.200000" d="M44.86,-199.19C47.72,-170.04 57.92,-81.66 78,-62.55 84.08,-56.76 91.71,-52.95 99.79,-50.49"/>
<polygon fill="#000000" fill-opacity="0.200000" stroke="#000000" stroke-width="2" stroke-opacity="0.200000" points="100.05,-52.59 105.38,-49.12 99.06,-48.51 100.05,-52.59"/>
</g>
<!-- src/reactions/rules/HHFusion.ts -->
<g id="node14" class="node">
<title>src/reactions/rules/HHFusion.ts</title>
<g id="a_node14"><a xlink:href="src/reactions/rules/HHFusion.ts" xlink:title="HHFusion.ts">
<path fill="#ddfeff" stroke="black" d="M183.46,-121.42C183.46,-121.42 129.04,-121.42 129.04,-121.42 126.08,-121.42 123.12,-118.46 123.12,-115.51 123.12,-115.51 123.12,-109.59 123.12,-109.59 123.12,-106.63 126.08,-103.67 129.04,-103.67 129.04,-103.67 183.46,-103.67 183.46,-103.67 186.42,-103.67 189.38,-106.63 189.38,-109.59 189.38,-109.59 189.38,-115.51 189.38,-115.51 189.38,-118.46 186.42,-121.42 183.46,-121.42"/>
<text xml:space="preserve" text-anchor="start" x="131.12" y="-108.87" font-family="Helvetica,sans-Serif" font-size="9.00">HHFusion.ts</text>
</a>
</g>
</g>
<!-- src/main.ts&#45;&gt;src/reactions/rules/HHFusion.ts -->
<g id="edge12" class="edge">
<title>src/main.ts&#45;&gt;src/reactions/rules/HHFusion.ts</title>
<path fill="none" stroke="#000000" stroke-width="2" stroke-opacity="0.200000" d="M44.9,-199.35C47.12,-181.96 54.52,-144.31 78,-125.55 88.1,-117.48 101.35,-113.61 114.02,-111.93"/>
<polygon fill="#000000" fill-opacity="0.200000" stroke="#000000" stroke-width="2" stroke-opacity="0.200000" points="113.87,-114.05 119.64,-111.39 113.46,-109.87 113.87,-114.05"/>
</g>
<!-- src/reactions/rules/OxidationToWater.ts -->
<g id="node15" class="node">
<title>src/reactions/rules/OxidationToWater.ts</title>
<g id="a_node15"><a xlink:href="src/reactions/rules/OxidationToWater.ts" xlink:title="OxidationToWater.ts">
<path fill="#ddfeff" stroke="black" d="M198.83,-91.42C198.83,-91.42 113.67,-91.42 113.67,-91.42 110.71,-91.42 107.75,-88.46 107.75,-85.51 107.75,-85.51 107.75,-79.59 107.75,-79.59 107.75,-76.63 110.71,-73.67 113.67,-73.67 113.67,-73.67 198.83,-73.67 198.83,-73.67 201.79,-73.67 204.75,-76.63 204.75,-79.59 204.75,-79.59 204.75,-85.51 204.75,-85.51 204.75,-88.46 201.79,-91.42 198.83,-91.42"/>
<text xml:space="preserve" text-anchor="start" x="115.75" y="-78.87" font-family="Helvetica,sans-Serif" font-size="9.00">OxidationToWater.ts</text>
</a>
</g>
</g>
<!-- src/main.ts&#45;&gt;src/reactions/rules/OxidationToWater.ts -->
<g id="edge13" class="edge">
<title>src/main.ts&#45;&gt;src/reactions/rules/OxidationToWater.ts</title>
<path fill="none" stroke="#000000" stroke-width="2" stroke-opacity="0.200000" d="M43.86,-199.45C44.06,-178.15 47.74,-124.78 78,-97.55 83.97,-92.18 91.26,-88.48 98.97,-85.98"/>
<polygon fill="#000000" fill-opacity="0.200000" stroke="#000000" stroke-width="2" stroke-opacity="0.200000" points="99.26,-88.07 104.51,-84.49 98.17,-84.02 99.26,-88.07"/>
</g>
<!-- src/simulator/MizuSimulator.ts -->
<g id="node16" class="node">
<title>src/simulator/MizuSimulator.ts</title>
<g id="a_node16"><a xlink:href="src/simulator/MizuSimulator.ts" xlink:title="MizuSimulator.ts">
<path fill="#ddfeff" stroke="black" d="M192.08,-367.42C192.08,-367.42 120.42,-367.42 120.42,-367.42 117.46,-367.42 114.5,-364.46 114.5,-361.51 114.5,-361.51 114.5,-355.59 114.5,-355.59 114.5,-352.63 117.46,-349.67 120.42,-349.67 120.42,-349.67 192.08,-349.67 192.08,-349.67 195.04,-349.67 198,-352.63 198,-355.59 198,-355.59 198,-361.51 198,-361.51 198,-364.46 195.04,-367.42 192.08,-367.42"/>
<text xml:space="preserve" text-anchor="start" x="122.5" y="-354.87" font-family="Helvetica,sans-Serif" font-size="9.00">MizuSimulator.ts</text>
</a>
</g>
</g>
<!-- src/main.ts&#45;&gt;src/simulator/MizuSimulator.ts -->
<g id="edge14" class="edge">
<title>src/main.ts&#45;&gt;src/simulator/MizuSimulator.ts</title>
<path fill="none" stroke="#000000" stroke-width="2" stroke-opacity="0.200000" d="M44.98,-217.73C48.13,-245.53 58.94,-327.9 78,-345.55 85.49,-352.48 95.22,-356.47 105.24,-358.64"/>
<polygon fill="#000000" fill-opacity="0.200000" stroke="#000000" stroke-width="2" stroke-opacity="0.200000" points="104.82,-360.7 111.08,-359.61 105.51,-356.55 104.82,-360.7"/>
</g>
<!-- src/simulator/World.ts -->
<g id="node17" class="node">
<title>src/simulator/World.ts</title>
<g id="a_node17"><a xlink:href="src/simulator/World.ts" xlink:title="World.ts">
<path fill="#ddfeff" stroke="black" d="M308.33,-367.42C308.33,-367.42 266.17,-367.42 266.17,-367.42 263.21,-367.42 260.25,-364.46 260.25,-361.51 260.25,-361.51 260.25,-355.59 260.25,-355.59 260.25,-352.63 263.21,-349.67 266.17,-349.67 266.17,-349.67 308.33,-349.67 308.33,-349.67 311.29,-349.67 314.25,-352.63 314.25,-355.59 314.25,-355.59 314.25,-361.51 314.25,-361.51 314.25,-364.46 311.29,-367.42 308.33,-367.42"/>
<text xml:space="preserve" text-anchor="start" x="270.75" y="-354.87" font-family="Helvetica,sans-Serif" font-size="9.00">World.ts</text>
</a>
</g>
</g>
<!-- src/main.ts&#45;&gt;src/simulator/World.ts -->
<g id="edge15" class="edge">
<title>src/main.ts&#45;&gt;src/simulator/World.ts</title>
<path fill="none" stroke="#000000" stroke-width="2" stroke-opacity="0.200000" d="M44.44,-217.91C46.14,-249.85 53.51,-353.59 78,-373.55 129.76,-415.73 214.87,-389.44 258.52,-371.37"/>
<polygon fill="#000000" fill-opacity="0.200000" stroke="#000000" stroke-width="2" stroke-opacity="0.200000" points="259.2,-373.37 263.89,-369.08 257.55,-369.51 259.2,-373.37"/>
</g>
<!-- src/util/Measurement.ts -->
<g id="node18" class="node">
<title>src/util/Measurement.ts</title>
<g id="a_node18"><a xlink:href="src/util/Measurement.ts" xlink:title="Measurement.ts">
<path fill="#ddfeff" stroke="black" d="M190.96,-487.42C190.96,-487.42 121.54,-487.42 121.54,-487.42 118.58,-487.42 115.62,-484.46 115.62,-481.51 115.62,-481.51 115.62,-475.59 115.62,-475.59 115.62,-472.63 118.58,-469.67 121.54,-469.67 121.54,-469.67 190.96,-469.67 190.96,-469.67 193.92,-469.67 196.88,-472.63 196.88,-475.59 196.88,-475.59 196.88,-481.51 196.88,-481.51 196.88,-484.46 193.92,-487.42 190.96,-487.42"/>
<text xml:space="preserve" text-anchor="start" x="123.62" y="-474.87" font-family="Helvetica,sans-Serif" font-size="9.00">Measurement.ts</text>
</a>
</g>
</g>
<!-- src/main.ts&#45;&gt;src/util/Measurement.ts -->
<g id="edge16" class="edge">
<title>src/main.ts&#45;&gt;src/util/Measurement.ts</title>
<path fill="none" stroke="#000000" stroke-width="2" stroke-opacity="0.200000" d="M43.97,-217.75C44,-258.21 46.17,-419.87 78,-456.55 85.36,-465.02 95.72,-470.35 106.48,-473.66"/>
<polygon fill="#000000" fill-opacity="0.200000" stroke="#000000" stroke-width="2" stroke-opacity="0.200000" points="105.87,-475.67 112.21,-475.14 106.93,-471.6 105.87,-475.67"/>
</g>
<!-- src/particles/ParticleFactory.ts&#45;&gt;src/core/Random.ts -->
<g id="edge31" class="edge">
<title>src/particles/ParticleFactory.ts&#45;&gt;src/core/Random.ts</title>
<path fill="none" stroke="#000000" stroke-opacity="0.200000" d="M290.47,-217.77C296.19,-239.24 313.69,-292.38 351,-313.55 396.01,-339.09 535.14,-312.6 555.75,-289.55 590.91,-250.23 535.61,-93.58 568.75,-52.55 572.58,-47.8 577.85,-44.58 583.57,-42.4"/>
<polygon fill="none" stroke="#000000" stroke-opacity="0.200000" points="583.85,-44.51 588.97,-40.74 582.62,-40.49 583.85,-44.51"/>
</g>
<!-- src/particles/ParticleFactory.ts&#45;&gt;src/core/behaviors/FallAndSway.ts -->
<g id="edge29" class="edge">
<title>src/particles/ParticleFactory.ts&#45;&gt;src/core/behaviors/FallAndSway.ts</title>
<path fill="none" stroke="#000000" stroke-width="2" stroke-opacity="0.200000" d="M309.78,-199.27C320.67,-193.81 333.55,-186.09 343,-176.55 348.04,-171.46 345.63,-167.29 351,-162.55 355.49,-158.59 422.38,-131.58 463.52,-115.18"/>
<polygon fill="#000000" fill-opacity="0.200000" stroke="#000000" stroke-width="2" stroke-opacity="0.200000" points="464.26,-117.14 469.06,-112.97 462.71,-113.24 464.26,-117.14"/>
</g>
<!-- src/particles/ParticleFactory.ts&#45;&gt;src/core/behaviors/RandomWalk.ts -->
<g id="edge30" class="edge">
<title>src/particles/ParticleFactory.ts&#45;&gt;src/core/behaviors/RandomWalk.ts</title>
<path fill="none" stroke="#000000" stroke-width="2" stroke-opacity="0.200000" d="M313.67,-199.24C324.29,-194.12 335.8,-186.69 343,-176.55 353.75,-161.41 337.66,-148.46 351,-135.55 371.06,-116.14 392.8,-144.81 413,-125.55 425.49,-113.64 408.74,-99.7 421,-87.55 428.16,-80.45 437.69,-76.25 447.54,-73.86"/>
<polygon fill="#000000" fill-opacity="0.200000" stroke="#000000" stroke-width="2" stroke-opacity="0.200000" points="447.75,-75.96 453.24,-72.76 446.95,-71.83 447.75,-75.96"/>
</g>
<!-- src/particles/ParticleFactory.ts&#45;&gt;src/core/renderers/DropletRenderer.ts -->
<g id="edge32" class="edge">
<title>src/particles/ParticleFactory.ts&#45;&gt;src/core/renderers/DropletRenderer.ts</title>
<path fill="none" stroke="#000000" stroke-width="2" stroke-opacity="0.200000" d="M320.88,-199.22C330.5,-196.88 341.1,-194.71 351,-193.55 378.37,-190.32 389.17,-179.72 413,-193.55 419.2,-197.14 415.19,-203.35 421,-207.55 426.91,-211.82 433.74,-214.94 440.82,-217.21"/>
<polygon fill="#000000" fill-opacity="0.200000" stroke="#000000" stroke-width="2" stroke-opacity="0.200000" points="439.94,-219.15 446.28,-218.71 441.05,-215.1 439.94,-219.15"/>
</g>
<!-- src/particles/ParticleFactory.ts&#45;&gt;src/core/renderers/SubscriptTextRenderer.ts -->
<g id="edge33" class="edge">
<title>src/particles/ParticleFactory.ts&#45;&gt;src/core/renderers/SubscriptTextRenderer.ts</title>
<path fill="none" stroke="#000000" stroke-width="2" stroke-opacity="0.200000" d="M302.56,-199.28C314.87,-191.79 333.39,-181.69 351,-176.55 375.54,-169.38 403.33,-165.7 427.92,-163.86"/>
<polygon fill="#000000" fill-opacity="0.200000" stroke="#000000" stroke-width="2" stroke-opacity="0.200000" points="427.96,-165.96 433.81,-163.47 427.68,-161.77 427.96,-165.96"/>
</g>
<!-- src/particles/ParticleFactory.ts&#45;&gt;src/core/renderers/TextRenderer.ts -->
<g id="edge34" class="edge">
<title>src/particles/ParticleFactory.ts&#45;&gt;src/core/renderers/TextRenderer.ts</title>
<path fill="none" stroke="#000000" stroke-width="2" stroke-opacity="0.200000" d="M306.36,-199.2C318.61,-193.42 335.34,-186.55 351,-183.55 382.6,-177.48 418.74,-179.75 446.95,-183.52"/>
<polygon fill="#000000" fill-opacity="0.200000" stroke="#000000" stroke-width="2" stroke-opacity="0.200000" points="446.59,-185.59 452.82,-184.36 447.18,-181.43 446.59,-185.59"/>
</g>
<!-- src/particles/H.ts -->
<g id="node19" class="node">
<title>src/particles/H.ts</title>
<g id="a_node19"><a xlink:href="src/particles/H.ts" xlink:title="H.ts">
<path fill="#ddfeff" stroke="black" d="M399.08,-277.42C399.08,-277.42 356.92,-277.42 356.92,-277.42 353.96,-277.42 351,-274.46 351,-271.51 351,-271.51 351,-265.59 351,-265.59 351,-262.63 353.96,-259.67 356.92,-259.67 356.92,-259.67 399.08,-259.67 399.08,-259.67 402.04,-259.67 405,-262.63 405,-265.59 405,-265.59 405,-271.51 405,-271.51 405,-274.46 402.04,-277.42 399.08,-277.42"/>
<text xml:space="preserve" text-anchor="start" x="370.12" y="-264.87" font-family="Helvetica,sans-Serif" font-size="9.00">H.ts</text>
</a>
</g>
</g>
<!-- src/particles/ParticleFactory.ts&#45;&gt;src/particles/H.ts -->
<g id="edge35" class="edge">
<title>src/particles/ParticleFactory.ts&#45;&gt;src/particles/H.ts</title>
<path fill="none" stroke="#000000" stroke-width="2" stroke-opacity="0.200000" d="M300.5,-217.88C312.97,-227.25 332.97,-241.92 351,-253.55 351.56,-253.91 352.13,-254.27 352.7,-254.63"/>
<polygon fill="#000000" fill-opacity="0.200000" stroke="#000000" stroke-width="2" stroke-opacity="0.200000" points="351.54,-256.38 357.76,-257.7 353.72,-252.79 351.54,-256.38"/>
</g>
<!-- src/particles/H2.ts -->
<g id="node20" class="node">
<title>src/particles/H2.ts</title>
<g id="a_node20"><a xlink:href="src/particles/H2.ts" xlink:title="H2.ts">
<path fill="#ddfeff" stroke="black" d="M399.08,-307.42C399.08,-307.42 356.92,-307.42 356.92,-307.42 353.96,-307.42 351,-304.46 351,-301.51 351,-301.51 351,-295.59 351,-295.59 351,-292.63 353.96,-289.67 356.92,-289.67 356.92,-289.67 399.08,-289.67 399.08,-289.67 402.04,-289.67 405,-292.63 405,-295.59 405,-295.59 405,-301.51 405,-301.51 405,-304.46 402.04,-307.42 399.08,-307.42"/>
<text xml:space="preserve" text-anchor="start" x="367.5" y="-294.87" font-family="Helvetica,sans-Serif" font-size="9.00">H2.ts</text>
</a>
</g>
</g>
<!-- src/particles/ParticleFactory.ts&#45;&gt;src/particles/H2.ts -->
<g id="edge36" class="edge">
<title>src/particles/ParticleFactory.ts&#45;&gt;src/particles/H2.ts</title>
<path fill="none" stroke="#000000" stroke-width="2" stroke-opacity="0.200000" d="M294.34,-217.75C304.65,-232.85 326.82,-263.24 351,-283.55 351.31,-283.81 351.62,-284.07 351.94,-284.32"/>
<polygon fill="#000000" fill-opacity="0.200000" stroke="#000000" stroke-width="2" stroke-opacity="0.200000" points="350.5,-285.88 356.62,-287.6 352.91,-282.44 350.5,-285.88"/>
</g>
<!-- src/particles/H2o.ts -->
<g id="node21" class="node">
<title>src/particles/H2o.ts</title>
<g id="a_node21"><a xlink:href="src/particles/H2o.ts" xlink:title="H2o.ts">
<path fill="#ddfeff" stroke="black" d="M399.08,-217.42C399.08,-217.42 356.92,-217.42 356.92,-217.42 353.96,-217.42 351,-214.46 351,-211.51 351,-211.51 351,-205.59 351,-205.59 351,-202.63 353.96,-199.67 356.92,-199.67 356.92,-199.67 399.08,-199.67 399.08,-199.67 402.04,-199.67 405,-202.63 405,-205.59 405,-205.59 405,-211.51 405,-211.51 405,-214.46 402.04,-217.42 399.08,-217.42"/>
<text xml:space="preserve" text-anchor="start" x="364.88" y="-204.87" font-family="Helvetica,sans-Serif" font-size="9.00">H2o.ts</text>
</a>
</g>
</g>
<!-- src/particles/ParticleFactory.ts&#45;&gt;src/particles/H2o.ts -->
<g id="edge37" class="edge">
<title>src/particles/ParticleFactory.ts&#45;&gt;src/particles/H2o.ts</title>
<path fill="none" stroke="#000000" stroke-width="2" stroke-opacity="0.200000" d="M330.55,-208.55C334.46,-208.55 338.4,-208.55 342.24,-208.55"/>
<polygon fill="#000000" fill-opacity="0.200000" stroke="#000000" stroke-width="2" stroke-opacity="0.200000" points="341.93,-210.65 347.93,-208.55 341.93,-206.45 341.93,-210.65"/>
</g>
<!-- src/particles/O.ts -->
<g id="node22" class="node">
<title>src/particles/O.ts</title>
<g id="a_node22"><a xlink:href="src/particles/O.ts" xlink:title="O.ts">
<path fill="#ddfeff" stroke="black" d="M399.08,-247.42C399.08,-247.42 356.92,-247.42 356.92,-247.42 353.96,-247.42 351,-244.46 351,-241.51 351,-241.51 351,-235.59 351,-235.59 351,-232.63 353.96,-229.67 356.92,-229.67 356.92,-229.67 399.08,-229.67 399.08,-229.67 402.04,-229.67 405,-232.63 405,-235.59 405,-235.59 405,-241.51 405,-241.51 405,-244.46 402.04,-247.42 399.08,-247.42"/>
<text xml:space="preserve" text-anchor="start" x="370.12" y="-234.87" font-family="Helvetica,sans-Serif" font-size="9.00">O.ts</text>
</a>
</g>
</g>
<!-- src/particles/ParticleFactory.ts&#45;&gt;src/particles/O.ts -->
<g id="edge38" class="edge">
<title>src/particles/ParticleFactory.ts&#45;&gt;src/particles/O.ts</title>
<path fill="none" stroke="#000000" stroke-width="2" stroke-opacity="0.200000" d="M315.84,-217.88C324.16,-220.69 333.41,-223.81 342.13,-226.76"/>
<polygon fill="#000000" fill-opacity="0.200000" stroke="#000000" stroke-width="2" stroke-opacity="0.200000" points="341.41,-228.73 347.77,-228.67 342.76,-224.76 341.41,-228.73"/>
</g>
<!-- src/physics/BruteForceCollisionDetector.ts&#45;&gt;src/core/Particle.ts -->
<g id="edge39" class="edge">
<title>src/physics/BruteForceCollisionDetector.ts&#45;&gt;src/core/Particle.ts</title>
<path fill="none" stroke="#000000" stroke-opacity="0.200000" d="M185.27,-427.87C222.49,-438.69 289.74,-452.75 343,-433.55 415.16,-407.54 467.8,-324.64 487.2,-290"/>
<polygon fill="none" stroke="#000000" stroke-opacity="0.200000" points="488.86,-291.34 489.9,-285.07 485.18,-289.32 488.86,-291.34"/>
</g>
<!-- src/physics/CollisionDetector.ts -->
<g id="node23" class="node">
<title>src/physics/CollisionDetector.ts</title>
<g id="a_node23"><a xlink:href="src/physics/CollisionDetector.ts" xlink:title="CollisionDetector.ts">
<path fill="#ddfeff" stroke="black" d="M329.08,-427.42C329.08,-427.42 245.42,-427.42 245.42,-427.42 242.46,-427.42 239.5,-424.46 239.5,-421.51 239.5,-421.51 239.5,-415.59 239.5,-415.59 239.5,-412.63 242.46,-409.67 245.42,-409.67 245.42,-409.67 329.08,-409.67 329.08,-409.67 332.04,-409.67 335,-412.63 335,-415.59 335,-415.59 335,-421.51 335,-421.51 335,-424.46 332.04,-427.42 329.08,-427.42"/>
<text xml:space="preserve" text-anchor="start" x="247.5" y="-414.87" font-family="Helvetica,sans-Serif" font-size="9.00">CollisionDetector.ts</text>
</a>
</g>
</g>
<!-- src/physics/BruteForceCollisionDetector.ts&#45;&gt;src/physics/CollisionDetector.ts -->
<g id="edge40" class="edge">
<title>src/physics/BruteForceCollisionDetector.ts&#45;&gt;src/physics/CollisionDetector.ts</title>
<path fill="none" stroke="#000000" stroke-opacity="0.200000" d="M226.66,-418.55C228.35,-418.55 230.05,-418.55 231.73,-418.55"/>
<polygon fill="none" stroke="#000000" stroke-opacity="0.200000" points="231.52,-420.65 237.52,-418.55 231.52,-416.45 231.52,-420.65"/>
</g>
<!-- src/reactions/ReactionRegistry.ts&#45;&gt;src/core/Particle.ts -->
<g id="edge42" class="edge">
<title>src/reactions/ReactionRegistry.ts&#45;&gt;src/core/Particle.ts</title>
<path fill="none" stroke="#000000" stroke-opacity="0.200000" d="M204.27,-56.27C211.8,-58.02 219.43,-60.09 226.5,-62.55 231.15,-64.16 231.68,-66.07 236.38,-67.55 282.03,-81.88 295.62,-75.83 343,-82.55 374.12,-86.96 391.85,-69.3 413,-92.55 425.58,-106.37 408.73,-246.45 421,-260.55 430.77,-271.77 446.45,-275.81 460.9,-276.81"/>
<polygon fill="none" stroke="#000000" stroke-opacity="0.200000" points="460.72,-278.91 466.8,-277.03 460.88,-274.71 460.72,-278.91"/>
</g>
<!-- src/reactions/ReactionRule.ts -->
<g id="node24" class="node">
<title>src/reactions/ReactionRule.ts</title>
<g id="a_node24"><a xlink:href="src/reactions/ReactionRule.ts" xlink:title="ReactionRule.ts">
<path fill="#ddfeff" stroke="black" d="M321.96,-61.42C321.96,-61.42 252.54,-61.42 252.54,-61.42 249.58,-61.42 246.62,-58.46 246.62,-55.51 246.62,-55.51 246.62,-49.59 246.62,-49.59 246.62,-46.63 249.58,-43.67 252.54,-43.67 252.54,-43.67 321.96,-43.67 321.96,-43.67 324.92,-43.67 327.88,-46.63 327.88,-49.59 327.88,-49.59 327.88,-55.51 327.88,-55.51 327.88,-58.46 324.92,-61.42 321.96,-61.42"/>
<text xml:space="preserve" text-anchor="start" x="254.62" y="-48.87" font-family="Helvetica,sans-Serif" font-size="9.00">ReactionRule.ts</text>
</a>
</g>
</g>
<!-- src/reactions/ReactionRegistry.ts&#45;&gt;src/reactions/ReactionRule.ts -->
<g id="edge43" class="edge">
<title>src/reactions/ReactionRegistry.ts&#45;&gt;src/reactions/ReactionRule.ts</title>
<path fill="none" stroke="#000000" stroke-opacity="0.200000" d="M204.19,-50C215.53,-50.36 227.66,-50.73 239.02,-51.08"/>
<polygon fill="none" stroke="#000000" stroke-opacity="0.200000" points="238.79,-53.18 244.85,-51.26 238.92,-48.98 238.79,-53.18"/>
</g>
<!-- src/reactions/rules/HHFusion.ts&#45;&gt;src/core/Particle.ts -->
<g id="edge45" class="edge">
<title>src/reactions/rules/HHFusion.ts&#45;&gt;src/core/Particle.ts</title>
<path fill="none" stroke="#000000" stroke-opacity="0.200000" d="M189.66,-106.22C244.61,-97.58 355.67,-89.56 413,-151.55 429.49,-169.38 404.82,-242.43 421,-260.55 430.84,-271.56 446.38,-275.6 460.71,-276.67"/>
<polygon fill="none" stroke="#000000" stroke-opacity="0.200000" points="460.47,-278.76 466.55,-276.92 460.64,-274.57 460.47,-278.76"/>
</g>
<!-- src/reactions/rules/HHFusion.ts&#45;&gt;src/particles/ParticleFactory.ts -->
<g id="edge46" class="edge">
<title>src/reactions/rules/HHFusion.ts&#45;&gt;src/particles/ParticleFactory.ts</title>
<path fill="none" stroke="#000000" stroke-opacity="0.200000" d="M189.79,-113.59C202.06,-115.23 215.66,-118.66 226.5,-125.55 252.14,-141.85 270.2,-173.45 279.36,-192.61"/>
<polygon fill="none" stroke="#000000" stroke-opacity="0.200000" points="277.38,-193.33 281.8,-197.91 281.2,-191.58 277.38,-193.33"/>
</g>
<!-- src/reactions/rules/HHFusion.ts&#45;&gt;src/reactions/ReactionRule.ts -->
<g id="edge47" class="edge">
<title>src/reactions/rules/HHFusion.ts&#45;&gt;src/reactions/ReactionRule.ts</title>
<path fill="none" stroke="#000000" stroke-opacity="0.200000" d="M189.55,-108.53C201.52,-106.28 214.98,-102.82 226.5,-97.55 243.39,-89.81 260.06,-76.67 271.49,-66.58"/>
<polygon fill="none" stroke="#000000" stroke-opacity="0.200000" points="272.8,-68.23 275.83,-62.64 269.98,-65.11 272.8,-68.23"/>
</g>
<!-- src/reactions/rules/OxidationToWater.ts&#45;&gt;src/core/Particle.ts -->
<g id="edge48" class="edge">
<title>src/reactions/rules/OxidationToWater.ts&#45;&gt;src/core/Particle.ts</title>
<path fill="none" stroke="#000000" stroke-opacity="0.200000" d="M205.07,-84.36C275.31,-87.52 399.56,-95.23 413,-110.55 435.02,-135.64 399.01,-235.43 421,-260.55 430.8,-271.75 446.49,-275.78 460.93,-276.79"/>
<polygon fill="none" stroke="#000000" stroke-opacity="0.200000" points="460.75,-278.88 466.82,-277.01 460.91,-274.69 460.75,-278.88"/>
</g>
<!-- src/reactions/rules/OxidationToWater.ts&#45;&gt;src/particles/ParticleFactory.ts -->
<g id="edge49" class="edge">
<title>src/reactions/rules/OxidationToWater.ts&#45;&gt;src/particles/ParticleFactory.ts</title>
<path fill="none" stroke="#000000" stroke-opacity="0.200000" d="M205.06,-87.22C212.74,-89.51 220.21,-92.81 226.5,-97.55 258.37,-121.54 275.15,-167.64 282.17,-192.2"/>
<polygon fill="none" stroke="#000000" stroke-opacity="0.200000" points="280.12,-192.66 283.71,-197.9 284.17,-191.56 280.12,-192.66"/>
</g>
<!-- src/reactions/rules/OxidationToWater.ts&#45;&gt;src/reactions/ReactionRule.ts -->
<g id="edge50" class="edge">
<title>src/reactions/rules/OxidationToWater.ts&#45;&gt;src/reactions/ReactionRule.ts</title>
<path fill="none" stroke="#000000" stroke-opacity="0.200000" d="M205.05,-74.17C212.26,-72.73 219.59,-71.17 226.5,-69.55 233.59,-67.88 241.09,-65.91 248.3,-63.91"/>
<polygon fill="none" stroke="#000000" stroke-opacity="0.200000" points="248.72,-65.97 253.92,-62.32 247.58,-61.93 248.72,-65.97"/>
</g>
<!-- src/simulator/MizuSimulator.ts&#45;&gt;src/core/Particle.ts -->
<g id="edge51" class="edge">
<title>src/simulator/MizuSimulator.ts&#45;&gt;src/core/Particle.ts</title>
<path fill="none" stroke="#000000" stroke-opacity="0.200000" d="M158.2,-349.35C161.81,-319.63 177.63,-226 236.38,-188.55 302.57,-146.35 354.51,-136.19 413,-188.55 425,-199.28 410.05,-248.74 421,-260.55 431.04,-271.38 446.61,-275.4 460.9,-276.5"/>
<polygon fill="none" stroke="#000000" stroke-opacity="0.200000" points="460.63,-278.59 466.72,-276.76 460.82,-274.39 460.63,-278.59"/>
</g>
<!-- src/simulator/MizuSimulator.ts&#45;&gt;src/particles/ParticleFactory.ts -->
<g id="edge52" class="edge">
<title>src/simulator/MizuSimulator.ts&#45;&gt;src/particles/ParticleFactory.ts</title>
<path fill="none" stroke="#000000" stroke-opacity="0.200000" d="M198.14,-357.5C208.24,-355.55 218.46,-351.95 226.5,-345.55 265.09,-314.81 279.32,-254.17 284.08,-224.99"/>
<polygon fill="none" stroke="#000000" stroke-opacity="0.200000" points="286.15,-225.39 284.96,-219.14 281.99,-224.76 286.15,-225.39"/>
</g>
<!-- src/simulator/MizuSimulator.ts&#45;&gt;src/reactions/ReactionRegistry.ts -->
<g id="edge54" class="edge">
<title>src/simulator/MizuSimulator.ts&#45;&gt;src/reactions/ReactionRegistry.ts</title>
<path fill="none" stroke="#000000" stroke-opacity="0.200000" d="M151.38,-349.52C136.14,-320.7 89.47,-227.9 74,-144.55 70.92,-127.94 69.11,-84.71 74,-68.55 74.93,-65.48 75.32,-64.3 78,-62.55 84.94,-58 92.95,-54.81 101.12,-52.6"/>
<polygon fill="none" stroke="#000000" stroke-opacity="0.200000" points="101.19,-54.75 106.54,-51.32 100.22,-50.66 101.19,-54.75"/>
</g>
<!-- src/simulator/MizuSimulator.ts&#45;&gt;src/simulator/World.ts -->
<g id="edge55" class="edge">
<title>src/simulator/MizuSimulator.ts&#45;&gt;src/simulator/World.ts</title>
<path fill="none" stroke="#000000" stroke-opacity="0.200000" d="M198.42,-358.55C215.94,-358.55 236.12,-358.55 252.71,-358.55"/>
<polygon fill="none" stroke="#000000" stroke-opacity="0.200000" points="252.54,-360.65 258.54,-358.55 252.54,-356.45 252.54,-360.65"/>
</g>
<!-- src/simulator/MizuSimulator.ts&#45;&gt;src/physics/CollisionDetector.ts -->
<g id="edge53" class="edge">
<title>src/simulator/MizuSimulator.ts&#45;&gt;src/physics/CollisionDetector.ts</title>
<path fill="none" stroke="#000000" stroke-opacity="0.200000" d="M176.03,-367.78C192.02,-375.58 215.61,-386.99 236.38,-396.55 243.34,-399.75 250.89,-403.13 257.96,-406.26"/>
<polygon fill="none" stroke="#000000" stroke-opacity="0.200000" points="257.1,-408.17 263.44,-408.67 258.79,-404.33 257.1,-408.17"/>
</g>
<!-- src/simulator/World.ts&#45;&gt;src/core/Particle.ts -->
<g id="edge56" class="edge">
<title>src/simulator/World.ts&#45;&gt;src/core/Particle.ts</title>
<path fill="none" stroke="#000000" stroke-opacity="0.200000" d="M314.59,-357.47C340.57,-355.59 380.93,-350.48 413,-336.55 439.61,-324.99 465.55,-303.21 481,-288.79"/>
<polygon fill="none" stroke="#000000" stroke-opacity="0.200000" points="482.2,-290.54 485.1,-284.88 479.3,-287.5 482.2,-290.54"/>
</g>
<!-- src/particles/H.ts&#45;&gt;src/core/Particle.ts -->
<g id="edge18" class="edge">
<title>src/particles/H.ts&#45;&gt;src/core/Particle.ts</title>
<path fill="none" stroke="#000000" stroke-opacity="0.200000" d="M405.41,-269.91C421.84,-270.76 443.14,-271.85 460.9,-272.77"/>
<polygon fill="none" stroke="#000000" stroke-opacity="0.200000" points="460.65,-274.86 466.75,-273.07 460.87,-270.67 460.65,-274.86"/>
</g>
<!-- src/particles/H.ts&#45;&gt;src/core/behaviors/MovementBehavior.ts -->
<g id="edge17" class="edge">
<title>src/particles/H.ts&#45;&gt;src/core/behaviors/MovementBehavior.ts</title>
<path fill="none" stroke="#000000" stroke-opacity="0.200000" d="M405.22,-277.59C408.06,-279.27 410.74,-281.25 413,-283.55 419.42,-290.08 413.37,-297.48 421,-302.55 470.89,-335.68 511.72,-343.14 555.75,-302.55 581.98,-278.37 551.82,-173.95 568.75,-142.55 574.74,-131.44 585.27,-122.41 595.24,-115.75"/>
<polygon fill="none" stroke="#000000" stroke-opacity="0.200000" points="596.08,-117.7 600.04,-112.73 593.85,-114.15 596.08,-117.7"/>
</g>
<!-- src/particles/H.ts&#45;&gt;src/core/renderers/ParticleRenderer.ts -->
<g id="edge19" class="edge">
<title>src/particles/H.ts&#45;&gt;src/core/renderers/ParticleRenderer.ts</title>
<path fill="none" stroke="#000000" stroke-opacity="0.200000" d="M405.19,-276.63C408.18,-278.49 410.91,-280.76 413,-283.55 428.91,-304.69 401.07,-325.14 421,-342.55 466.1,-381.95 504.37,-373.32 555.75,-342.55 593.76,-319.78 610.56,-266 616.83,-238.84"/>
<polygon fill="none" stroke="#000000" stroke-opacity="0.200000" points="618.85,-239.42 618.06,-233.11 614.74,-238.53 618.85,-239.42"/>
</g>
<!-- src/particles/H2.ts&#45;&gt;src/core/Particle.ts -->
<g id="edge21" class="edge">
<title>src/particles/H2.ts&#45;&gt;src/core/Particle.ts</title>
<path fill="none" stroke="#000000" stroke-opacity="0.200000" d="M405.41,-293.1C421.98,-289.68 443.52,-285.24 461.37,-281.56"/>
<polygon fill="none" stroke="#000000" stroke-opacity="0.200000" points="461.33,-283.71 466.78,-280.44 460.48,-279.6 461.33,-283.71"/>
</g>
<!-- src/particles/H2.ts&#45;&gt;src/core/behaviors/MovementBehavior.ts -->
<g id="edge20" class="edge">
<title>src/particles/H2.ts&#45;&gt;src/core/behaviors/MovementBehavior.ts</title>
<path fill="none" stroke="#000000" stroke-opacity="0.200000" d="M392.7,-307.89C400.6,-312.7 410.93,-318.07 421,-320.55 479.15,-334.86 511.89,-361.32 555.75,-320.55 584.8,-293.54 550.07,-177.53 568.75,-142.55 574.69,-131.42 585.22,-122.38 595.19,-115.73"/>
<polygon fill="none" stroke="#000000" stroke-opacity="0.200000" points="596.04,-117.68 600,-112.71 593.81,-114.12 596.04,-117.68"/>
</g>
<!-- src/particles/H2.ts&#45;&gt;src/core/renderers/ParticleRenderer.ts -->
<g id="edge22" class="edge">
<title>src/particles/H2.ts&#45;&gt;src/core/renderers/ParticleRenderer.ts</title>
<path fill="none" stroke="#000000" stroke-opacity="0.200000" d="M381.18,-307.71C385.57,-323.83 397.16,-356.85 421,-370.55 472.93,-400.38 505.68,-403.4 555.75,-370.55 601.31,-340.66 614.73,-270.75 618.55,-238.89"/>
<polygon fill="none" stroke="#000000" stroke-opacity="0.200000" points="620.61,-239.35 619.16,-233.16 616.43,-238.9 620.61,-239.35"/>
</g>
<!-- src/particles/H2o.ts&#45;&gt;src/core/Particle.ts -->
<g id="edge24" class="edge">
<title>src/particles/H2o.ts&#45;&gt;src/core/Particle.ts</title>
<path fill="none" stroke="#000000" stroke-opacity="0.200000" d="M405.32,-216.99C408.22,-218.79 410.88,-220.95 413,-223.55 423.63,-236.59 408.94,-248.81 421,-260.55 431.5,-270.77 446.97,-274.74 461.09,-275.97"/>
<polygon fill="none" stroke="#000000" stroke-opacity="0.200000" points="460.7,-278.05 466.81,-276.3 460.93,-273.86 460.7,-278.05"/>
</g>
<!-- src/particles/H2o.ts&#45;&gt;src/core/behaviors/FallAndSway.ts -->
<g id="edge23" class="edge">
<title>src/particles/H2o.ts&#45;&gt;src/core/behaviors/FallAndSway.ts</title>
<path fill="none" stroke="#000000" stroke-opacity="0.200000" d="M382.96,-199.41C389.3,-185.63 402.89,-159.37 421,-142.55 433.46,-130.97 449.9,-121.67 464.16,-114.96"/>
<polygon fill="none" stroke="#000000" stroke-opacity="0.200000" points="464.98,-116.9 469.57,-112.5 463.24,-113.07 464.98,-116.9"/>
</g>
<!-- src/particles/H2o.ts&#45;&gt;src/core/renderers/ParticleRenderer.ts -->
<g id="edge25" class="edge">
<title>src/particles/H2o.ts&#45;&gt;src/core/renderers/ParticleRenderer.ts</title>
<path fill="none" stroke="#000000" stroke-opacity="0.200000" d="M405.29,-216.55C408.26,-218.43 410.96,-220.73 413,-223.55 423.73,-238.38 407.44,-293.25 421,-305.55 443.18,-325.67 528.87,-318.73 555.75,-305.55 584.16,-291.61 603.6,-258.38 613.15,-238.45"/>
<polygon fill="none" stroke="#000000" stroke-opacity="0.200000" points="615,-239.48 615.6,-233.15 611.18,-237.72 615,-239.48"/>
</g>
<!-- src/particles/O.ts&#45;&gt;src/core/Particle.ts -->
<g id="edge27" class="edge">
<title>src/particles/O.ts&#45;&gt;src/core/Particle.ts</title>
<path fill="none" stroke="#000000" stroke-opacity="0.200000" d="M402.53,-247.81C406.13,-249.54 409.74,-251.47 413,-253.55 416.98,-256.09 416.75,-258.48 421,-260.55 433.25,-266.5 447.77,-269.93 460.72,-271.9"/>
<polygon fill="none" stroke="#000000" stroke-opacity="0.200000" points="460.41,-273.98 466.63,-272.7 460.97,-269.81 460.41,-273.98"/>
</g>
<!-- src/particles/O.ts&#45;&gt;src/core/behaviors/MovementBehavior.ts -->
<g id="edge26" class="edge">
<title>src/particles/O.ts&#45;&gt;src/core/behaviors/MovementBehavior.ts</title>
<path fill="none" stroke="#000000" stroke-opacity="0.200000" d="M405.34,-246.98C408.23,-248.78 410.89,-250.94 413,-253.55 423.87,-266.95 407.6,-280.67 421,-291.55 444.25,-310.42 533.68,-311.78 555.75,-291.55 580.25,-269.09 552.89,-171.75 568.75,-142.55 574.82,-131.38 585.47,-122.29 595.49,-115.62"/>
<polygon fill="none" stroke="#000000" stroke-opacity="0.200000" points="596.36,-117.56 600.32,-112.59 594.12,-114 596.36,-117.56"/>
</g>
<!-- src/particles/O.ts&#45;&gt;src/core/renderers/ParticleRenderer.ts -->
<g id="edge28" class="edge">
<title>src/particles/O.ts&#45;&gt;src/core/renderers/ParticleRenderer.ts</title>
<path fill="none" stroke="#000000" stroke-opacity="0.200000" d="M405.2,-246.61C408.2,-248.48 410.91,-250.76 413,-253.55 429.63,-275.8 400.13,-297.2 421,-315.55 465.98,-355.09 502.72,-343.37 555.75,-315.55 586.82,-299.25 605.83,-260.35 614.47,-238.38"/>
<polygon fill="none" stroke="#000000" stroke-opacity="0.200000" points="616.33,-239.4 616.47,-233.05 612.4,-237.92 616.33,-239.4"/>
</g>
<!-- src/physics/CollisionDetector.ts&#45;&gt;src/core/Particle.ts -->
<g id="edge41" class="edge">
<title>src/physics/CollisionDetector.ts&#45;&gt;src/core/Particle.ts</title>
<path fill="none" stroke="#000000" stroke-opacity="0.200000" d="M314.68,-409.27C323.85,-405.71 334.06,-401.33 343,-396.55 399.38,-366.36 455.45,-314.38 481.02,-289.14"/>
<polygon fill="none" stroke="#000000" stroke-opacity="0.200000" points="482.44,-290.69 485.21,-284.96 479.48,-287.71 482.44,-290.69"/>
</g>
<!-- src/reactions/ReactionRule.ts&#45;&gt;src/core/Particle.ts -->
<g id="edge44" class="edge">
<title>src/reactions/ReactionRule.ts&#45;&gt;src/core/Particle.ts</title>
<path fill="none" stroke="#000000" stroke-opacity="0.200000" d="M328.09,-52.95C360.24,-54.2 401.89,-58.25 413,-70.55 427.17,-86.23 407.17,-244.57 421,-260.55 430.74,-271.8 446.42,-275.84 460.87,-276.84"/>
<polygon fill="none" stroke="#000000" stroke-opacity="0.200000" points="460.7,-278.93 466.77,-277.05 460.85,-274.74 460.7,-278.93"/>
</g>
</g>
</svg>
