<?xml version="1.0" encoding="UTF-8" standalone="no"?>
<!DOCTYPE svg PUBLIC "-//W3C//DTD SVG 1.1//EN"
 "http://www.w3.org/Graphics/SVG/1.1/DTD/svg11.dtd">
<!-- Generated by graphviz version 12.2.1 (20241206.2353)
 -->
<!-- Title: dependency&#45;cruiser output Pages: 1 -->
<svg width="497pt" height="174pt"
 viewBox="0.00 0.00 497.25 174.00" xmlns="http://www.w3.org/2000/svg" xmlns:xlink="http://www.w3.org/1999/xlink">
<g id="graph0" class="graph" transform="scale(1 1) rotate(0) translate(4 170)">
<title>dependency&#45;cruiser output</title>
<polygon fill="white" stroke="none" points="-4,4 -4,-170 493.25,-170 493.25,4 -4,4"/>
<g id="clust1" class="cluster">
<title>cluster_src</title>
<path fill="#ffffff" stroke="black" stroke-width="2" d="M20,-8C20,-8 469.25,-8 469.25,-8 475.25,-8 481.25,-14 481.25,-20 481.25,-20 481.25,-146 481.25,-146 481.25,-152 475.25,-158 469.25,-158 469.25,-158 20,-158 20,-158 14,-158 8,-152 8,-146 8,-146 8,-20 8,-20 8,-14 14,-8 20,-8"/>
<text text-anchor="middle" x="244.62" y="-145.45" font-family="Helvetica,sans-Serif" font-weight="bold" font-size="9.00">src</text>
</g>
<g id="clust2" class="cluster">
<title>cluster_src/atoms</title>
<path fill="#ffffff" stroke="black" stroke-width="2" d="M197.5,-22C197.5,-22 461.25,-22 461.25,-22 467.25,-22 473.25,-28 473.25,-34 473.25,-34 473.25,-120 473.25,-120 473.25,-126 467.25,-132 461.25,-132 461.25,-132 197.5,-132 197.5,-132 191.5,-132 185.5,-126 185.5,-120 185.5,-120 185.5,-34 185.5,-34 185.5,-28 191.5,-22 197.5,-22"/>
<text text-anchor="middle" x="329.38" y="-119.45" font-family="Helvetica,sans-Serif" font-weight="bold" font-size="9.00">atoms</text>
</g>
<g id="clust3" class="cluster">
<title>cluster_src/simulator</title>
<path fill="#ffffff" stroke="black" stroke-width="2" d="M90,-20C90,-20 165.5,-20 165.5,-20 171.5,-20 177.5,-26 177.5,-32 177.5,-32 177.5,-60 177.5,-60 177.5,-66 171.5,-72 165.5,-72 165.5,-72 90,-72 90,-72 84,-72 78,-66 78,-60 78,-60 78,-32 78,-32 78,-26 84,-20 90,-20"/>
<text text-anchor="middle" x="127.75" y="-59.45" font-family="Helvetica,sans-Serif" font-weight="bold" font-size="9.00">simulator</text>
</g>
<g id="clust4" class="cluster">
<title>cluster_src/util</title>
<path fill="#ffffff" stroke="black" stroke-width="2" d="M91.12,-80C91.12,-80 164.38,-80 164.38,-80 170.38,-80 176.38,-86 176.38,-92 176.38,-92 176.38,-120 176.38,-120 176.38,-126 170.38,-132 164.38,-132 164.38,-132 91.12,-132 91.12,-132 85.12,-132 79.12,-126 79.12,-120 79.12,-120 79.12,-92 79.12,-92 79.12,-86 85.12,-80 91.12,-80"/>
<text text-anchor="middle" x="127.75" y="-119.45" font-family="Helvetica,sans-Serif" font-weight="bold" font-size="9.00">util</text>
</g>
<!-- src/atoms/Coordinate.ts -->
<g id="node1" class="node">
<title>src/atoms/Coordinate.ts</title>
<g id="a_node1"><a xlink:href="src/atoms/Coordinate.ts" xlink:title="Coordinate.ts">
<path fill="#ddfeff" stroke="black" d="M459.33,-69.88C459.33,-69.88 400.42,-69.88 400.42,-69.88 397.46,-69.88 394.5,-66.92 394.5,-63.96 394.5,-63.96 394.5,-58.04 394.5,-58.04 394.5,-55.08 397.46,-52.12 400.42,-52.12 400.42,-52.12 459.33,-52.12 459.33,-52.12 462.29,-52.12 465.25,-55.08 465.25,-58.04 465.25,-58.04 465.25,-63.96 465.25,-63.96 465.25,-66.92 462.29,-69.88 459.33,-69.88"/>
<text text-anchor="start" x="402.5" y="-57.33" font-family="Helvetica,sans-Serif" font-size="9.00">Coordinate.ts</text>
</a>
</g>
</g>
<!-- src/atoms/H.ts -->
<g id="node2" class="node">
<title>src/atoms/H.ts</title>
<g id="a_node2"><a xlink:href="src/atoms/H.ts" xlink:title="H.ts">
<path fill="#ddfeff" stroke="black" d="M375.58,-47.88C375.58,-47.88 333.42,-47.88 333.42,-47.88 330.46,-47.88 327.5,-44.92 327.5,-41.96 327.5,-41.96 327.5,-36.04 327.5,-36.04 327.5,-33.08 330.46,-30.12 333.42,-30.12 333.42,-30.12 375.58,-30.12 375.58,-30.12 378.54,-30.12 381.5,-33.08 381.5,-36.04 381.5,-36.04 381.5,-41.96 381.5,-41.96 381.5,-44.92 378.54,-47.88 375.58,-47.88"/>
<text text-anchor="start" x="346.62" y="-35.33" font-family="Helvetica,sans-Serif" font-size="9.00">H.ts</text>
</a>
</g>
</g>
<!-- src/atoms/H.ts&#45;&gt;src/atoms/Coordinate.ts -->
<g id="edge1" class="edge">
<title>src/atoms/H.ts&#45;&gt;src/atoms/Coordinate.ts</title>
<path fill="none" stroke="#000000" stroke-opacity="0.200000" d="M381.99,-46.94C384.85,-47.8 387.81,-48.69 390.77,-49.58"/>
<polygon fill="none" stroke="#000000" stroke-opacity="0.200000" points="389.88,-51.5 396.23,-51.21 391.08,-47.48 389.88,-51.5"/>
</g>
<!-- src/atoms/H2.ts -->
<g id="node3" class="node">
<title>src/atoms/H2.ts</title>
<g id="a_node3"><a xlink:href="src/atoms/H2.ts" xlink:title="H2.ts">
<path fill="#ddfeff" stroke="black" d="M308.58,-61.88C308.58,-61.88 266.42,-61.88 266.42,-61.88 263.46,-61.88 260.5,-58.92 260.5,-55.96 260.5,-55.96 260.5,-50.04 260.5,-50.04 260.5,-47.08 263.46,-44.12 266.42,-44.12 266.42,-44.12 308.58,-44.12 308.58,-44.12 311.54,-44.12 314.5,-47.08 314.5,-50.04 314.5,-50.04 314.5,-55.96 314.5,-55.96 314.5,-58.92 311.54,-61.88 308.58,-61.88"/>
<text text-anchor="start" x="277" y="-49.33" font-family="Helvetica,sans-Serif" font-size="9.00">H2.ts</text>
</a>
</g>
</g>
<!-- src/atoms/H2.ts&#45;&gt;src/atoms/Coordinate.ts -->
<g id="edge2" class="edge">
<title>src/atoms/H2.ts&#45;&gt;src/atoms/Coordinate.ts</title>
<path fill="none" stroke="#000000" stroke-opacity="0.200000" d="M314.9,-54.5C335.11,-55.66 363.39,-57.27 386.72,-58.6"/>
<polygon fill="none" stroke="#000000" stroke-opacity="0.200000" points="386.48,-60.69 392.59,-58.93 386.72,-56.49 386.48,-60.69"/>
</g>
<!-- src/atoms/H2.ts&#45;&gt;src/atoms/H.ts -->
<g id="edge3" class="edge">
<title>src/atoms/H2.ts&#45;&gt;src/atoms/H.ts</title>
<path fill="none" stroke="#000000" stroke-opacity="0.200000" d="M314.94,-47.31C316.59,-46.95 318.27,-46.59 319.95,-46.23"/>
<polygon fill="none" stroke="#000000" stroke-opacity="0.200000" points="320.39,-48.28 325.82,-44.96 319.51,-44.17 320.39,-48.28"/>
</g>
<!-- src/atoms/H2o.ts -->
<g id="node4" class="node">
<title>src/atoms/H2o.ts</title>
<g id="a_node4"><a xlink:href="src/atoms/H2o.ts" xlink:title="H2o.ts">
<path fill="#ddfeff" stroke="black" d="M375.58,-105.88C375.58,-105.88 333.42,-105.88 333.42,-105.88 330.46,-105.88 327.5,-102.92 327.5,-99.96 327.5,-99.96 327.5,-94.04 327.5,-94.04 327.5,-91.08 330.46,-88.12 333.42,-88.12 333.42,-88.12 375.58,-88.12 375.58,-88.12 378.54,-88.12 381.5,-91.08 381.5,-94.04 381.5,-94.04 381.5,-99.96 381.5,-99.96 381.5,-102.92 378.54,-105.88 375.58,-105.88"/>
<text text-anchor="start" x="341.38" y="-93.33" font-family="Helvetica,sans-Serif" font-size="9.00">H2o.ts</text>
</a>
</g>
</g>
<!-- src/atoms/H2o.ts&#45;&gt;src/atoms/Coordinate.ts -->
<g id="edge4" class="edge">
<title>src/atoms/H2o.ts&#45;&gt;src/atoms/Coordinate.ts</title>
<path fill="none" stroke="#000000" stroke-opacity="0.200000" d="M374.4,-87.73C383.14,-83.44 393.67,-78.27 403.13,-73.63"/>
<polygon fill="none" stroke="#000000" stroke-opacity="0.200000" points="403.97,-75.56 408.43,-71.03 402.12,-71.79 403.97,-75.56"/>
</g>
<!-- src/atoms/O.ts -->
<g id="node5" class="node">
<title>src/atoms/O.ts</title>
<g id="a_node5"><a xlink:href="src/atoms/O.ts" xlink:title="O.ts">
<path fill="#ddfeff" stroke="black" d="M241.58,-75.88C241.58,-75.88 199.42,-75.88 199.42,-75.88 196.46,-75.88 193.5,-72.92 193.5,-69.96 193.5,-69.96 193.5,-64.04 193.5,-64.04 193.5,-61.08 196.46,-58.12 199.42,-58.12 199.42,-58.12 241.58,-58.12 241.58,-58.12 244.54,-58.12 247.5,-61.08 247.5,-64.04 247.5,-64.04 247.5,-69.96 247.5,-69.96 247.5,-72.92 244.54,-75.88 241.58,-75.88"/>
<text text-anchor="start" x="212.62" y="-63.33" font-family="Helvetica,sans-Serif" font-size="9.00">O.ts</text>
</a>
</g>
</g>
<!-- src/atoms/O.ts&#45;&gt;src/atoms/Coordinate.ts -->
<g id="edge5" class="edge">
<title>src/atoms/O.ts&#45;&gt;src/atoms/Coordinate.ts</title>
<path fill="none" stroke="#000000" stroke-opacity="0.200000" d="M247.93,-67.77C252.14,-67.87 256.44,-67.95 260.5,-68 284.5,-68.31 290.51,-68.73 314.5,-68 338.42,-67.27 365.12,-65.68 386.71,-64.2"/>
<polygon fill="none" stroke="#000000" stroke-opacity="0.200000" points="386.76,-66.3 392.6,-63.79 386.47,-62.11 386.76,-66.3"/>
</g>
<!-- src/atoms/O.ts&#45;&gt;src/atoms/H2.ts -->
<g id="edge6" class="edge">
<title>src/atoms/O.ts&#45;&gt;src/atoms/H2.ts</title>
<path fill="none" stroke="#000000" stroke-opacity="0.200000" d="M247.94,-61.31C249.59,-60.95 251.27,-60.59 252.95,-60.23"/>
<polygon fill="none" stroke="#000000" stroke-opacity="0.200000" points="253.39,-62.28 258.82,-58.96 252.51,-58.17 253.39,-62.28"/>
</g>
<!-- src/main.ts -->
<g id="node6" class="node">
<title>src/main.ts</title>
<g id="a_node6"><a xlink:href="src/main.ts" xlink:title="main.ts">
<path fill="#ddfeff" stroke="black" d="M64.08,-75.88C64.08,-75.88 21.92,-75.88 21.92,-75.88 18.96,-75.88 16,-72.92 16,-69.96 16,-69.96 16,-64.04 16,-64.04 16,-61.08 18.96,-58.12 21.92,-58.12 21.92,-58.12 64.08,-58.12 64.08,-58.12 67.04,-58.12 70,-61.08 70,-64.04 70,-64.04 70,-69.96 70,-69.96 70,-72.92 67.04,-75.88 64.08,-75.88"/>
<text text-anchor="start" x="28.38" y="-63.33" font-family="Helvetica,sans-Serif" font-size="9.00">main.ts</text>
</a>
</g>
</g>
<!-- src/simulator/MizuSimulator.ts -->
<g id="node7" class="node">
<title>src/simulator/MizuSimulator.ts</title>
<g id="a_node7"><a xlink:href="src/simulator/MizuSimulator.ts" xlink:title="MizuSimulator.ts">
<path fill="#ddfeff" stroke="black" d="M163.58,-45.88C163.58,-45.88 91.92,-45.88 91.92,-45.88 88.96,-45.88 86,-42.92 86,-39.96 86,-39.96 86,-34.04 86,-34.04 86,-31.08 88.96,-28.12 91.92,-28.12 91.92,-28.12 163.58,-28.12 163.58,-28.12 166.54,-28.12 169.5,-31.08 169.5,-34.04 169.5,-34.04 169.5,-39.96 169.5,-39.96 169.5,-42.92 166.54,-45.88 163.58,-45.88"/>
<text text-anchor="start" x="94" y="-33.33" font-family="Helvetica,sans-Serif" font-size="9.00">MizuSimulator.ts</text>
</a>
</g>
</g>
<!-- src/main.ts&#45;&gt;src/simulator/MizuSimulator.ts -->
<g id="edge7" class="edge">
<title>src/main.ts&#45;&gt;src/simulator/MizuSimulator.ts</title>
<path fill="none" stroke="#000000" stroke-width="2" stroke-opacity="0.200000" d="M69.73,-57.67C77.05,-55.02 85.13,-52.09 92.85,-49.29"/>
<polygon fill="#000000" fill-opacity="0.200000" stroke="#000000" stroke-width="2" stroke-opacity="0.200000" points="93.27,-51.37 98.19,-47.35 91.83,-47.42 93.27,-51.37"/>
</g>
<!-- src/util/Measurement.ts -->
<g id="node8" class="node">
<title>src/util/Measurement.ts</title>
<g id="a_node8"><a xlink:href="src/util/Measurement.ts" xlink:title="Measurement.ts">
<path fill="#ddfeff" stroke="black" d="M162.46,-105.88C162.46,-105.88 93.04,-105.88 93.04,-105.88 90.08,-105.88 87.12,-102.92 87.12,-99.96 87.12,-99.96 87.12,-94.04 87.12,-94.04 87.12,-91.08 90.08,-88.12 93.04,-88.12 93.04,-88.12 162.46,-88.12 162.46,-88.12 165.42,-88.12 168.38,-91.08 168.38,-94.04 168.38,-94.04 168.38,-99.96 168.38,-99.96 168.38,-102.92 165.42,-105.88 162.46,-105.88"/>
<text text-anchor="start" x="95.12" y="-93.33" font-family="Helvetica,sans-Serif" font-size="9.00">Measurement.ts</text>
</a>
</g>
</g>
<!-- src/main.ts&#45;&gt;src/util/Measurement.ts -->
<g id="edge8" class="edge">
<title>src/main.ts&#45;&gt;src/util/Measurement.ts</title>
<path fill="none" stroke="#000000" stroke-width="2" stroke-opacity="0.200000" d="M69.73,-76.33C77.05,-78.98 85.13,-81.91 92.85,-84.71"/>
<polygon fill="#000000" fill-opacity="0.200000" stroke="#000000" stroke-width="2" stroke-opacity="0.200000" points="91.83,-86.58 98.19,-86.65 93.27,-82.63 91.83,-86.58"/>
</g>
<!-- src/simulator/MizuSimulator.ts&#45;&gt;src/atoms/Coordinate.ts -->
<g id="edge9" class="edge">
<title>src/simulator/MizuSimulator.ts&#45;&gt;src/atoms/Coordinate.ts</title>
<path fill="none" stroke="#000000" stroke-width="2" stroke-opacity="0.200000" d="M161.76,-27.64C211.09,-15.33 306.3,1.89 381.5,-24 394.11,-28.34 405.94,-37.57 414.63,-45.73"/>
<polygon fill="#000000" fill-opacity="0.200000" stroke="#000000" stroke-width="2" stroke-opacity="0.200000" points="412.98,-47.06 418.72,-49.79 415.94,-44.07 412.98,-47.06"/>
</g>
<!-- src/simulator/MizuSimulator.ts&#45;&gt;src/atoms/H.ts -->
<g id="edge10" class="edge">
<title>src/simulator/MizuSimulator.ts&#45;&gt;src/atoms/H.ts</title>
<path fill="none" stroke="#000000" stroke-width="2" stroke-opacity="0.200000" d="M169.7,-36.98C207.34,-37.02 264.68,-37.23 314.5,-38 315.77,-38.02 317.06,-38.04 318.37,-38.07"/>
<polygon fill="#000000" fill-opacity="0.200000" stroke="#000000" stroke-width="2" stroke-opacity="0.200000" points="318,-40.16 324.04,-38.19 318.09,-35.96 318,-40.16"/>
</g>
<!-- src/simulator/MizuSimulator.ts&#45;&gt;src/atoms/H2.ts -->
<g id="edge11" class="edge">
<title>src/simulator/MizuSimulator.ts&#45;&gt;src/atoms/H2.ts</title>
<path fill="none" stroke="#000000" stroke-width="2" stroke-opacity="0.200000" d="M169.79,-41.16C195.04,-43.72 227.08,-46.97 251.2,-49.42"/>
<polygon fill="#000000" fill-opacity="0.200000" stroke="#000000" stroke-width="2" stroke-opacity="0.200000" points="250.83,-51.49 257.01,-50.01 251.25,-47.31 250.83,-51.49"/>
</g>
<!-- src/simulator/MizuSimulator.ts&#45;&gt;src/atoms/H2o.ts -->
<g id="edge12" class="edge">
<title>src/simulator/MizuSimulator.ts&#45;&gt;src/atoms/H2o.ts</title>
<path fill="none" stroke="#000000" stroke-width="2" stroke-opacity="0.200000" d="M139.65,-46.2C154.61,-58.74 180.27,-79.91 185.5,-82 228.82,-99.29 283.26,-100.87 318.22,-99.6"/>
<polygon fill="#000000" fill-opacity="0.200000" stroke="#000000" stroke-width="2" stroke-opacity="0.200000" points="318.18,-101.7 324.08,-99.33 317.99,-97.51 318.18,-101.7"/>
</g>
<!-- src/simulator/MizuSimulator.ts&#45;&gt;src/atoms/O.ts -->
<g id="edge13" class="edge">
<title>src/simulator/MizuSimulator.ts&#45;&gt;src/atoms/O.ts</title>
<path fill="none" stroke="#000000" stroke-width="2" stroke-opacity="0.200000" d="M156.97,-46.33C165.72,-49.22 175.47,-52.45 184.62,-55.47"/>
<polygon fill="#000000" fill-opacity="0.200000" stroke="#000000" stroke-width="2" stroke-opacity="0.200000" points="183.93,-57.45 190.28,-57.34 185.25,-53.46 183.93,-57.45"/>
</g>
</g>
</svg>
