<?xml version="1.0" encoding="UTF-8" standalone="no"?>
<!DOCTYPE svg PUBLIC "-//W3C//DTD SVG 1.1//EN"
 "http://www.w3.org/Graphics/SVG/1.1/DTD/svg11.dtd">
<!-- Generated by graphviz version 14.1.2 (20260124.0452)
 -->
<!-- Title: dependency&#45;cruiser output Pages: 1 -->
<svg width="772pt" height="558pt"
 viewBox="0.00 0.00 772.00 558.00" xmlns="http://www.w3.org/2000/svg" xmlns:xlink="http://www.w3.org/1999/xlink">
<g id="graph0" class="graph" transform="scale(1 1) rotate(0) translate(4 554)">
<title>dependency&#45;cruiser output</title>
<polygon fill="white" stroke="none" points="-4,4 -4,-554 768.25,-554 768.25,4 -4,4"/>
<g id="clust1" class="cluster">
<title>cluster_src</title>
<path fill="#ffffff" stroke="black" stroke-width="2" d="M20,-8C20,-8 744.25,-8 744.25,-8 750.25,-8 756.25,-14 756.25,-20 756.25,-20 756.25,-530 756.25,-530 756.25,-536 750.25,-542 744.25,-542 744.25,-542 20,-542 20,-542 14,-542 8,-536 8,-530 8,-530 8,-20 8,-20 8,-14 14,-8 20,-8"/>
<text xml:space="preserve" text-anchor="middle" x="382.12" y="-529.45" font-family="Helvetica,sans-Serif" font-weight="bold" font-size="9.00">src</text>
</g>
<g id="clust2" class="cluster">
<title>cluster_src/core</title>
<path fill="#ffffff" stroke="black" stroke-width="2" d="M492,-140C492,-140 736.25,-140 736.25,-140 742.25,-140 748.25,-146 748.25,-152 748.25,-152 748.25,-390 748.25,-390 748.25,-396 742.25,-402 736.25,-402 736.25,-402 492,-402 492,-402 486,-402 480,-396 480,-390 480,-390 480,-152 480,-152 480,-146 486,-140 492,-140"/>
<text xml:space="preserve" text-anchor="middle" x="614.12" y="-389.45" font-family="Helvetica,sans-Serif" font-weight="bold" font-size="9.00">core</text>
</g>
<g id="clust3" class="cluster">
<title>cluster_src/core/behaviors</title>
<path fill="#ffffff" stroke="black" stroke-width="2" d="M519.5,-174C519.5,-174 728.25,-174 728.25,-174 734.25,-174 740.25,-180 740.25,-186 740.25,-186 740.25,-244 740.25,-244 740.25,-250 734.25,-256 728.25,-256 728.25,-256 519.5,-256 519.5,-256 513.5,-256 507.5,-250 507.5,-244 507.5,-244 507.5,-186 507.5,-186 507.5,-180 513.5,-174 519.5,-174"/>
<text xml:space="preserve" text-anchor="middle" x="623.88" y="-243.45" font-family="Helvetica,sans-Serif" font-weight="bold" font-size="9.00">behaviors</text>
</g>
<g id="clust4" class="cluster">
<title>cluster_src/core/renderers</title>
<path fill="#ffffff" stroke="black" stroke-width="2" d="M500,-264C500,-264 723.38,-264 723.38,-264 729.38,-264 735.38,-270 735.38,-276 735.38,-276 735.38,-364 735.38,-364 735.38,-370 729.38,-376 723.38,-376 723.38,-376 500,-376 500,-376 494,-376 488,-370 488,-364 488,-364 488,-276 488,-276 488,-270 494,-264 500,-264"/>
<text xml:space="preserve" text-anchor="middle" x="611.69" y="-363.45" font-family="Helvetica,sans-Serif" font-weight="bold" font-size="9.00">renderers</text>
</g>
<g id="clust5" class="cluster">
<title>cluster_src/debug</title>
<path fill="#ffffff" stroke="black" stroke-width="2" d="M108.12,-56C108.12,-56 176.88,-56 176.88,-56 182.88,-56 188.88,-62 188.88,-68 188.88,-68 188.88,-96 188.88,-96 188.88,-102 182.88,-108 176.88,-108 176.88,-108 108.12,-108 108.12,-108 102.12,-108 96.12,-102 96.12,-96 96.12,-96 96.12,-68 96.12,-68 96.12,-62 102.12,-56 108.12,-56"/>
<text xml:space="preserve" text-anchor="middle" x="142.5" y="-95.45" font-family="Helvetica,sans-Serif" font-weight="bold" font-size="9.00">debug</text>
</g>
<g id="clust6" class="cluster">
<title>cluster_src/particles</title>
<path fill="#ffffff" stroke="black" stroke-width="2" d="M246.38,-314C246.38,-314 439.25,-314 439.25,-314 445.25,-314 451.25,-320 451.25,-326 451.25,-326 451.25,-444 451.25,-444 451.25,-450 445.25,-456 439.25,-456 439.25,-456 246.38,-456 246.38,-456 240.38,-456 234.38,-450 234.38,-444 234.38,-444 234.38,-326 234.38,-326 234.38,-320 240.38,-314 246.38,-314"/>
<text xml:space="preserve" text-anchor="middle" x="342.81" y="-443.45" font-family="Helvetica,sans-Serif" font-weight="bold" font-size="9.00">particles</text>
</g>
<g id="clust7" class="cluster">
<title>cluster_src/physics</title>
<path fill="#ffffff" stroke="black" stroke-width="2" d="M219,-50C219,-50 460,-50 460,-50 466,-50 472,-56 472,-62 472,-62 472,-120 472,-120 472,-126 466,-132 460,-132 460,-132 219,-132 219,-132 213,-132 207,-126 207,-120 207,-120 207,-62 207,-62 207,-56 213,-50 219,-50"/>
<text xml:space="preserve" text-anchor="middle" x="339.5" y="-119.45" font-family="Helvetica,sans-Serif" font-weight="bold" font-size="9.00">physics</text>
</g>
<g id="clust8" class="cluster">
<title>cluster_src/reactions</title>
<path fill="#ffffff" stroke="black" stroke-width="2" d="M90,-140C90,-140 321.88,-140 321.88,-140 327.88,-140 333.88,-146 333.88,-152 333.88,-152 333.88,-270 333.88,-270 333.88,-276 327.88,-282 321.88,-282 321.88,-282 90,-282 90,-282 84,-282 78,-276 78,-270 78,-270 78,-152 78,-152 78,-146 84,-140 90,-140"/>
<text xml:space="preserve" text-anchor="middle" x="205.94" y="-269.45" font-family="Helvetica,sans-Serif" font-weight="bold" font-size="9.00">reactions</text>
</g>
<g id="clust9" class="cluster">
<title>cluster_src/reactions/rules</title>
<path fill="#ffffff" stroke="black" stroke-width="2" d="M98,-148C98,-148 187,-148 187,-148 193,-148 199,-154 199,-160 199,-160 199,-218 199,-218 199,-224 193,-230 187,-230 187,-230 98,-230 98,-230 92,-230 86,-224 86,-218 86,-218 86,-160 86,-160 86,-154 92,-148 98,-148"/>
<text xml:space="preserve" text-anchor="middle" x="142.5" y="-217.45" font-family="Helvetica,sans-Serif" font-weight="bold" font-size="9.00">rules</text>
</g>
<g id="clust10" class="cluster">
<title>cluster_src/simulator</title>
<path fill="#ffffff" stroke="black" stroke-width="2" d="M104.75,-464C104.75,-464 308.25,-464 308.25,-464 314.25,-464 320.25,-470 320.25,-476 320.25,-476 320.25,-504 320.25,-504 320.25,-510 314.25,-516 308.25,-516 308.25,-516 104.75,-516 104.75,-516 98.75,-516 92.75,-510 92.75,-504 92.75,-504 92.75,-476 92.75,-476 92.75,-470 98.75,-464 104.75,-464"/>
<text xml:space="preserve" text-anchor="middle" x="206.5" y="-503.45" font-family="Helvetica,sans-Serif" font-weight="bold" font-size="9.00">simulator</text>
</g>
<!-- src/core/Particle.ts -->
<g id="node1" class="node">
<title>src/core/Particle.ts</title>
<g id="a_node1"><a xlink:href="src/core/Particle.ts" xlink:title="Particle.ts">
<path fill="#ddfeff" stroke="black" d="M577.33,-165.88C577.33,-165.88 533.42,-165.88 533.42,-165.88 530.46,-165.88 527.5,-162.92 527.5,-159.96 527.5,-159.96 527.5,-154.04 527.5,-154.04 527.5,-151.08 530.46,-148.12 533.42,-148.12 533.42,-148.12 577.33,-148.12 577.33,-148.12 580.29,-148.12 583.25,-151.08 583.25,-154.04 583.25,-154.04 583.25,-159.96 583.25,-159.96 583.25,-162.92 580.29,-165.88 577.33,-165.88"/>
<text xml:space="preserve" text-anchor="start" x="535.5" y="-153.32" font-family="Helvetica,sans-Serif" font-size="9.00">Particle.ts</text>
</a>
</g>
</g>
<!-- src/core/Random.ts -->
<g id="node2" class="node">
<title>src/core/Random.ts</title>
<g id="a_node2"><a xlink:href="src/core/Random.ts" xlink:title="Random.ts">
<path fill="#ddfeff" stroke="black" d="M704.21,-165.88C704.21,-165.88 655.79,-165.88 655.79,-165.88 652.83,-165.88 649.88,-162.92 649.88,-159.96 649.88,-159.96 649.88,-154.04 649.88,-154.04 649.88,-151.08 652.83,-148.12 655.79,-148.12 655.79,-148.12 704.21,-148.12 704.21,-148.12 707.17,-148.12 710.12,-151.08 710.12,-154.04 710.12,-154.04 710.12,-159.96 710.12,-159.96 710.12,-162.92 707.17,-165.88 704.21,-165.88"/>
<text xml:space="preserve" text-anchor="start" x="657.88" y="-153.32" font-family="Helvetica,sans-Serif" font-size="9.00">Random.ts</text>
</a>
</g>
</g>
<!-- src/core/behaviors/FallAndSway.ts -->
<g id="node3" class="node">
<title>src/core/behaviors/FallAndSway.ts</title>
<g id="a_node3"><a xlink:href="src/core/behaviors/FallAndSway.ts" xlink:title="FallAndSway.ts">
<path fill="#ddfeff" stroke="black" d="M588.96,-229.88C588.96,-229.88 521.79,-229.88 521.79,-229.88 518.83,-229.88 515.88,-226.92 515.88,-223.96 515.88,-223.96 515.88,-218.04 515.88,-218.04 515.88,-215.08 518.83,-212.12 521.79,-212.12 521.79,-212.12 588.96,-212.12 588.96,-212.12 591.92,-212.12 594.88,-215.08 594.88,-218.04 594.88,-218.04 594.88,-223.96 594.88,-223.96 594.88,-226.92 591.92,-229.88 588.96,-229.88"/>
<text xml:space="preserve" text-anchor="start" x="523.88" y="-217.32" font-family="Helvetica,sans-Serif" font-size="9.00">FallAndSway.ts</text>
</a>
</g>
</g>
<!-- src/core/behaviors/FallAndSway.ts&#45;&gt;src/core/Random.ts -->
<g id="edge1" class="edge">
<title>src/core/behaviors/FallAndSway.ts&#45;&gt;src/core/Random.ts</title>
<path fill="none" stroke="#000000" stroke-opacity="0.200000" d="M595.12,-216.61C602.28,-214.34 609.23,-210.97 614.75,-206 627.08,-194.89 615.51,-182.2 627.75,-171 631.96,-167.15 637.13,-164.34 642.55,-162.3"/>
<polygon fill="none" stroke="#000000" stroke-opacity="0.200000" points="642.96,-164.37 648.05,-160.55 641.7,-160.36 642.96,-164.37"/>
</g>
<!-- src/core/behaviors/MovementBehavior.ts -->
<g id="node4" class="node">
<title>src/core/behaviors/MovementBehavior.ts</title>
<g id="a_node4"><a xlink:href="src/core/behaviors/MovementBehavior.ts" xlink:title="MovementBehavior.ts">
<path fill="#ddfeff" stroke="black" d="M726.33,-229.88C726.33,-229.88 633.67,-229.88 633.67,-229.88 630.71,-229.88 627.75,-226.92 627.75,-223.96 627.75,-223.96 627.75,-218.04 627.75,-218.04 627.75,-215.08 630.71,-212.12 633.67,-212.12 633.67,-212.12 726.33,-212.12 726.33,-212.12 729.29,-212.12 732.25,-215.08 732.25,-218.04 732.25,-218.04 732.25,-223.96 732.25,-223.96 732.25,-226.92 729.29,-229.88 726.33,-229.88"/>
<text xml:space="preserve" text-anchor="start" x="635.75" y="-217.32" font-family="Helvetica,sans-Serif" font-size="9.00">MovementBehavior.ts</text>
</a>
</g>
</g>
<!-- src/core/behaviors/FallAndSway.ts&#45;&gt;src/core/behaviors/MovementBehavior.ts -->
<g id="edge2" class="edge">
<title>src/core/behaviors/FallAndSway.ts&#45;&gt;src/core/behaviors/MovementBehavior.ts</title>
<path fill="none" stroke="#000000" stroke-opacity="0.200000" d="M595.17,-221C603.1,-221 611.6,-221 620.05,-221"/>
<polygon fill="none" stroke="#000000" stroke-opacity="0.200000" points="619.93,-223.1 625.93,-221 619.93,-218.9 619.93,-223.1"/>
</g>
<!-- src/core/behaviors/RandomWalk.ts -->
<g id="node5" class="node">
<title>src/core/behaviors/RandomWalk.ts</title>
<g id="a_node5"><a xlink:href="src/core/behaviors/RandomWalk.ts" xlink:title="RandomWalk.ts">
<path fill="#ddfeff" stroke="black" d="M589.33,-199.88C589.33,-199.88 521.42,-199.88 521.42,-199.88 518.46,-199.88 515.5,-196.92 515.5,-193.96 515.5,-193.96 515.5,-188.04 515.5,-188.04 515.5,-185.08 518.46,-182.12 521.42,-182.12 521.42,-182.12 589.33,-182.12 589.33,-182.12 592.29,-182.12 595.25,-185.08 595.25,-188.04 595.25,-188.04 595.25,-193.96 595.25,-193.96 595.25,-196.92 592.29,-199.88 589.33,-199.88"/>
<text xml:space="preserve" text-anchor="start" x="523.5" y="-187.32" font-family="Helvetica,sans-Serif" font-size="9.00">RandomWalk.ts</text>
</a>
</g>
</g>
<!-- src/core/behaviors/RandomWalk.ts&#45;&gt;src/core/Random.ts -->
<g id="edge3" class="edge">
<title>src/core/behaviors/RandomWalk.ts&#45;&gt;src/core/Random.ts</title>
<path fill="none" stroke="#000000" stroke-opacity="0.200000" d="M595.74,-183.79C602.18,-182.17 608.72,-180.25 614.75,-178 620.9,-175.71 621.66,-173.44 627.75,-171 632.52,-169.09 637.64,-167.35 642.73,-165.8"/>
<polygon fill="none" stroke="#000000" stroke-opacity="0.200000" points="642.99,-167.91 648.17,-164.22 641.82,-163.88 642.99,-167.91"/>
</g>
<!-- src/core/behaviors/RandomWalk.ts&#45;&gt;src/core/behaviors/MovementBehavior.ts -->
<g id="edge4" class="edge">
<title>src/core/behaviors/RandomWalk.ts&#45;&gt;src/core/behaviors/MovementBehavior.ts</title>
<path fill="none" stroke="#000000" stroke-opacity="0.200000" d="M594.5,-200.33C606.96,-203.38 620.91,-206.79 633.84,-209.95"/>
<polygon fill="none" stroke="#000000" stroke-opacity="0.200000" points="633.1,-211.93 639.43,-211.32 634.1,-207.85 633.1,-211.93"/>
</g>
<!-- src/core/renderers/DropletRenderer.ts -->
<g id="node6" class="node">
<title>src/core/renderers/DropletRenderer.ts</title>
<g id="a_node6"><a xlink:href="src/core/renderers/DropletRenderer.ts" xlink:title="DropletRenderer.ts">
<path fill="#ddfeff" stroke="black" d="M596.46,-289.88C596.46,-289.88 514.29,-289.88 514.29,-289.88 511.33,-289.88 508.38,-286.92 508.38,-283.96 508.38,-283.96 508.38,-278.04 508.38,-278.04 508.38,-275.08 511.33,-272.12 514.29,-272.12 514.29,-272.12 596.46,-272.12 596.46,-272.12 599.42,-272.12 602.38,-275.08 602.38,-278.04 602.38,-278.04 602.38,-283.96 602.38,-283.96 602.38,-286.92 599.42,-289.88 596.46,-289.88"/>
<text xml:space="preserve" text-anchor="start" x="516.38" y="-277.32" font-family="Helvetica,sans-Serif" font-size="9.00">DropletRenderer.ts</text>
</a>
</g>
</g>
<!-- src/core/renderers/ParticleRenderer.ts -->
<g id="node7" class="node">
<title>src/core/renderers/ParticleRenderer.ts</title>
<g id="a_node7"><a xlink:href="src/core/renderers/ParticleRenderer.ts" xlink:title="ParticleRenderer.ts">
<path fill="#ddfeff" stroke="black" d="M721.46,-349.88C721.46,-349.88 638.54,-349.88 638.54,-349.88 635.58,-349.88 632.62,-346.92 632.62,-343.96 632.62,-343.96 632.62,-338.04 632.62,-338.04 632.62,-335.08 635.58,-332.12 638.54,-332.12 638.54,-332.12 721.46,-332.12 721.46,-332.12 724.42,-332.12 727.38,-335.08 727.38,-338.04 727.38,-338.04 727.38,-343.96 727.38,-343.96 727.38,-346.92 724.42,-349.88 721.46,-349.88"/>
<text xml:space="preserve" text-anchor="start" x="640.62" y="-337.32" font-family="Helvetica,sans-Serif" font-size="9.00">ParticleRenderer.ts</text>
</a>
</g>
</g>
<!-- src/core/renderers/DropletRenderer.ts&#45;&gt;src/core/renderers/ParticleRenderer.ts -->
<g id="edge5" class="edge">
<title>src/core/renderers/DropletRenderer.ts&#45;&gt;src/core/renderers/ParticleRenderer.ts</title>
<path fill="none" stroke="#000000" stroke-opacity="0.200000" d="M600.02,-290.36C605.08,-291.98 610.09,-293.86 614.75,-296 632.4,-304.12 650.33,-317.16 662.75,-327.12"/>
<polygon fill="none" stroke="#000000" stroke-opacity="0.200000" points="661.23,-328.6 667.2,-330.77 663.89,-325.35 661.23,-328.6"/>
</g>
<!-- src/core/renderers/SubscriptTextRenderer.ts -->
<g id="node8" class="node">
<title>src/core/renderers/SubscriptTextRenderer.ts</title>
<g id="a_node8"><a xlink:href="src/core/renderers/SubscriptTextRenderer.ts" xlink:title="SubscriptTextRenderer.ts">
<path fill="#ddfeff" stroke="black" d="M608.83,-319.88C608.83,-319.88 501.92,-319.88 501.92,-319.88 498.96,-319.88 496,-316.92 496,-313.96 496,-313.96 496,-308.04 496,-308.04 496,-305.08 498.96,-302.12 501.92,-302.12 501.92,-302.12 608.83,-302.12 608.83,-302.12 611.79,-302.12 614.75,-305.08 614.75,-308.04 614.75,-308.04 614.75,-313.96 614.75,-313.96 614.75,-316.92 611.79,-319.88 608.83,-319.88"/>
<text xml:space="preserve" text-anchor="start" x="504" y="-307.32" font-family="Helvetica,sans-Serif" font-size="9.00">SubscriptTextRenderer.ts</text>
</a>
</g>
</g>
<!-- src/core/renderers/SubscriptTextRenderer.ts&#45;&gt;src/core/renderers/ParticleRenderer.ts -->
<g id="edge6" class="edge">
<title>src/core/renderers/SubscriptTextRenderer.ts&#45;&gt;src/core/renderers/ParticleRenderer.ts</title>
<path fill="none" stroke="#000000" stroke-opacity="0.200000" d="M594.5,-320.33C606.96,-323.38 620.91,-326.79 633.84,-329.95"/>
<polygon fill="none" stroke="#000000" stroke-opacity="0.200000" points="633.1,-331.93 639.43,-331.32 634.1,-327.85 633.1,-331.93"/>
</g>
<!-- src/core/renderers/TextRenderer.ts -->
<g id="node9" class="node">
<title>src/core/renderers/TextRenderer.ts</title>
<g id="a_node9"><a xlink:href="src/core/renderers/TextRenderer.ts" xlink:title="TextRenderer.ts">
<path fill="#ddfeff" stroke="black" d="M589.71,-349.88C589.71,-349.88 521.04,-349.88 521.04,-349.88 518.08,-349.88 515.12,-346.92 515.12,-343.96 515.12,-343.96 515.12,-338.04 515.12,-338.04 515.12,-335.08 518.08,-332.12 521.04,-332.12 521.04,-332.12 589.71,-332.12 589.71,-332.12 592.67,-332.12 595.62,-335.08 595.62,-338.04 595.62,-338.04 595.62,-343.96 595.62,-343.96 595.62,-346.92 592.67,-349.88 589.71,-349.88"/>
<text xml:space="preserve" text-anchor="start" x="523.12" y="-337.32" font-family="Helvetica,sans-Serif" font-size="9.00">TextRenderer.ts</text>
</a>
</g>
</g>
<!-- src/core/renderers/TextRenderer.ts&#45;&gt;src/core/renderers/ParticleRenderer.ts -->
<g id="edge7" class="edge">
<title>src/core/renderers/TextRenderer.ts&#45;&gt;src/core/renderers/ParticleRenderer.ts</title>
<path fill="none" stroke="#000000" stroke-opacity="0.200000" d="M595.85,-341C605.11,-341 615.14,-341 624.91,-341"/>
<polygon fill="none" stroke="#000000" stroke-opacity="0.200000" points="624.81,-343.1 630.81,-341 624.81,-338.9 624.81,-343.1"/>
</g>
<!-- src/debug/StatsOverlay.ts -->
<g id="node10" class="node">
<title>src/debug/StatsOverlay.ts</title>
<g id="a_node10"><a xlink:href="src/debug/StatsOverlay.ts" xlink:title="StatsOverlay.ts">
<path fill="#ddfeff" stroke="black" d="M174.96,-81.88C174.96,-81.88 110.04,-81.88 110.04,-81.88 107.08,-81.88 104.12,-78.92 104.12,-75.96 104.12,-75.96 104.12,-70.04 104.12,-70.04 104.12,-67.08 107.08,-64.12 110.04,-64.12 110.04,-64.12 174.96,-64.12 174.96,-64.12 177.92,-64.12 180.88,-67.08 180.88,-70.04 180.88,-70.04 180.88,-75.96 180.88,-75.96 180.88,-78.92 177.92,-81.88 174.96,-81.88"/>
<text xml:space="preserve" text-anchor="start" x="112.12" y="-69.33" font-family="Helvetica,sans-Serif" font-size="9.00">StatsOverlay.ts</text>
</a>
</g>
</g>
<!-- src/main.ts -->
<g id="node11" class="node">
<title>src/main.ts</title>
<g id="a_node11"><a xlink:href="src/main.ts" xlink:title="main.ts">
<path fill="#ddfeff" stroke="black" d="M64.08,-188.88C64.08,-188.88 21.92,-188.88 21.92,-188.88 18.96,-188.88 16,-185.92 16,-182.96 16,-182.96 16,-177.04 16,-177.04 16,-174.08 18.96,-171.12 21.92,-171.12 21.92,-171.12 64.08,-171.12 64.08,-171.12 67.04,-171.12 70,-174.08 70,-177.04 70,-177.04 70,-182.96 70,-182.96 70,-185.92 67.04,-188.88 64.08,-188.88"/>
<text xml:space="preserve" text-anchor="start" x="28.38" y="-176.32" font-family="Helvetica,sans-Serif" font-size="9.00">main.ts</text>
</a>
</g>
</g>
<!-- src/main.ts&#45;&gt;src/core/Random.ts -->
<g id="edge8" class="edge">
<title>src/main.ts&#45;&gt;src/core/Random.ts</title>
<path fill="none" stroke="#000000" stroke-width="2" stroke-opacity="0.200000" d="M43.4,-170.65C42.44,-147.02 43.48,-84.59 78,-53 146.65,9.81 191.2,-17 284.25,-17 284.25,-17 284.25,-17 417.25,-17 522.04,-17 625.51,-105.33 663.63,-141.67"/>
<polygon fill="#000000" fill-opacity="0.200000" stroke="#000000" stroke-width="2" stroke-opacity="0.200000" points="662.03,-143.04 667.8,-145.71 664.96,-140.02 662.03,-143.04"/>
</g>
<!-- src/main.ts&#45;&gt;src/debug/StatsOverlay.ts -->
<g id="edge9" class="edge">
<title>src/main.ts&#45;&gt;src/debug/StatsOverlay.ts</title>
<path fill="none" stroke="#000000" stroke-width="2" stroke-opacity="0.200000" d="M44.46,-170.89C45.94,-151.97 52.14,-108.36 78,-86 82.92,-81.75 88.85,-78.76 95.08,-76.67"/>
<polygon fill="#000000" fill-opacity="0.200000" stroke="#000000" stroke-width="2" stroke-opacity="0.200000" points="95.54,-78.72 100.78,-75.13 94.45,-74.66 95.54,-78.72"/>
</g>
<!-- src/particles/ParticleFactory.ts -->
<g id="node12" class="node">
<title>src/particles/ParticleFactory.ts</title>
<g id="a_node12"><a xlink:href="src/particles/ParticleFactory.ts" xlink:title="ParticleFactory.ts">
<path fill="#ddfeff" stroke="black" d="M322.21,-339.88C322.21,-339.88 248.29,-339.88 248.29,-339.88 245.33,-339.88 242.38,-336.92 242.38,-333.96 242.38,-333.96 242.38,-328.04 242.38,-328.04 242.38,-325.08 245.33,-322.12 248.29,-322.12 248.29,-322.12 322.21,-322.12 322.21,-322.12 325.17,-322.12 328.12,-325.08 328.12,-328.04 328.12,-328.04 328.12,-333.96 328.12,-333.96 328.12,-336.92 325.17,-339.88 322.21,-339.88"/>
<text xml:space="preserve" text-anchor="start" x="250.38" y="-327.32" font-family="Helvetica,sans-Serif" font-size="9.00">ParticleFactory.ts</text>
</a>
</g>
</g>
<!-- src/main.ts&#45;&gt;src/particles/ParticleFactory.ts -->
<g id="edge10" class="edge">
<title>src/main.ts&#45;&gt;src/particles/ParticleFactory.ts</title>
<path fill="none" stroke="#000000" stroke-width="2" stroke-opacity="0.200000" d="M44.1,-189.17C44.85,-209.63 49.66,-259.2 78,-285 120.09,-323.32 186.92,-332.09 233.05,-333.05"/>
<polygon fill="#000000" fill-opacity="0.200000" stroke="#000000" stroke-width="2" stroke-opacity="0.200000" points="232.93,-335.15 238.95,-333.11 232.98,-330.95 232.93,-335.15"/>
</g>
<!-- src/physics/GridCollisionDetector.ts -->
<g id="node13" class="node">
<title>src/physics/GridCollisionDetector.ts</title>
<g id="a_node13"><a xlink:href="src/physics/GridCollisionDetector.ts" xlink:title="GridCollisionDetector.ts">
<path fill="#ddfeff" stroke="black" d="M335.71,-75.88C335.71,-75.88 234.79,-75.88 234.79,-75.88 231.83,-75.88 228.88,-72.92 228.88,-69.96 228.88,-69.96 228.88,-64.04 228.88,-64.04 228.88,-61.08 231.83,-58.12 234.79,-58.12 234.79,-58.12 335.71,-58.12 335.71,-58.12 338.67,-58.12 341.62,-61.08 341.62,-64.04 341.62,-64.04 341.62,-69.96 341.62,-69.96 341.62,-72.92 338.67,-75.88 335.71,-75.88"/>
<text xml:space="preserve" text-anchor="start" x="236.88" y="-63.33" font-family="Helvetica,sans-Serif" font-size="9.00">GridCollisionDetector.ts</text>
</a>
</g>
</g>
<!-- src/main.ts&#45;&gt;src/physics/GridCollisionDetector.ts -->
<g id="edge11" class="edge">
<title>src/main.ts&#45;&gt;src/physics/GridCollisionDetector.ts</title>
<path fill="none" stroke="#000000" stroke-width="2" stroke-opacity="0.200000" d="M47.13,-170.73C51.78,-158.5 61.76,-137.32 78,-127 123.79,-97.91 158.09,-146.63 199,-111 209.08,-102.22 197.19,-91.08 207,-82 211.01,-78.29 215.66,-75.37 220.65,-73.08"/>
<polygon fill="#000000" fill-opacity="0.200000" stroke="#000000" stroke-width="2" stroke-opacity="0.200000" points="221.03,-75.18 225.89,-71.08 219.53,-71.26 221.03,-75.18"/>
</g>
<!-- src/physics/SpatialGrid.ts -->
<g id="node14" class="node">
<title>src/physics/SpatialGrid.ts</title>
<g id="a_node14"><a xlink:href="src/physics/SpatialGrid.ts" xlink:title="SpatialGrid.ts">
<path fill="#ddfeff" stroke="black" d="M445.71,-75.88C445.71,-75.88 386.79,-75.88 386.79,-75.88 383.83,-75.88 380.88,-72.92 380.88,-69.96 380.88,-69.96 380.88,-64.04 380.88,-64.04 380.88,-61.08 383.83,-58.12 386.79,-58.12 386.79,-58.12 445.71,-58.12 445.71,-58.12 448.67,-58.12 451.62,-61.08 451.62,-64.04 451.62,-64.04 451.62,-69.96 451.62,-69.96 451.62,-72.92 448.67,-75.88 445.71,-75.88"/>
<text xml:space="preserve" text-anchor="start" x="388.88" y="-63.33" font-family="Helvetica,sans-Serif" font-size="9.00">SpatialGrid.ts</text>
</a>
</g>
</g>
<!-- src/main.ts&#45;&gt;src/physics/SpatialGrid.ts -->
<g id="edge12" class="edge">
<title>src/main.ts&#45;&gt;src/physics/SpatialGrid.ts</title>
<path fill="none" stroke="#000000" stroke-width="2" stroke-opacity="0.200000" d="M50.09,-170.83C56.12,-162.57 66.15,-150.86 78,-145 189.34,-89.96 255.89,-186.19 355.5,-112 367.15,-103.32 357.73,-91.76 368.5,-82 369.94,-80.7 371.49,-79.51 373.12,-78.42"/>
<polygon fill="#000000" fill-opacity="0.200000" stroke="#000000" stroke-width="2" stroke-opacity="0.200000" points="373.78,-80.45 378.05,-75.74 371.78,-76.76 373.78,-80.45"/>
</g>
<!-- src/reactions/ReactionRegistry.ts -->
<g id="node15" class="node">
<title>src/reactions/ReactionRegistry.ts</title>
<g id="a_node15"><a xlink:href="src/reactions/ReactionRegistry.ts" xlink:title="ReactionRegistry.ts">
<path fill="#ddfeff" stroke="black" d="M184.33,-255.88C184.33,-255.88 100.67,-255.88 100.67,-255.88 97.71,-255.88 94.75,-252.92 94.75,-249.96 94.75,-249.96 94.75,-244.04 94.75,-244.04 94.75,-241.08 97.71,-238.12 100.67,-238.12 100.67,-238.12 184.33,-238.12 184.33,-238.12 187.29,-238.12 190.25,-241.08 190.25,-244.04 190.25,-244.04 190.25,-249.96 190.25,-249.96 190.25,-252.92 187.29,-255.88 184.33,-255.88"/>
<text xml:space="preserve" text-anchor="start" x="102.75" y="-243.32" font-family="Helvetica,sans-Serif" font-size="9.00">ReactionRegistry.ts</text>
</a>
</g>
</g>
<!-- src/main.ts&#45;&gt;src/reactions/ReactionRegistry.ts -->
<g id="edge13" class="edge">
<title>src/main.ts&#45;&gt;src/reactions/ReactionRegistry.ts</title>
<path fill="none" stroke="#000000" stroke-width="2" stroke-opacity="0.200000" d="M47.26,-189.07C52.06,-201.07 62.22,-222 78,-233 80.53,-234.76 83.25,-236.31 86.07,-237.67"/>
<polygon fill="#000000" fill-opacity="0.200000" stroke="#000000" stroke-width="2" stroke-opacity="0.200000" points="85.14,-239.56 91.49,-239.87 86.72,-235.66 85.14,-239.56"/>
</g>
<!-- src/reactions/rules/HHFusion.ts -->
<g id="node16" class="node">
<title>src/reactions/rules/HHFusion.ts</title>
<g id="a_node16"><a xlink:href="src/reactions/rules/HHFusion.ts" xlink:title="HHFusion.ts">
<path fill="#ddfeff" stroke="black" d="M169.71,-203.88C169.71,-203.88 115.29,-203.88 115.29,-203.88 112.33,-203.88 109.38,-200.92 109.38,-197.96 109.38,-197.96 109.38,-192.04 109.38,-192.04 109.38,-189.08 112.33,-186.12 115.29,-186.12 115.29,-186.12 169.71,-186.12 169.71,-186.12 172.67,-186.12 175.62,-189.08 175.62,-192.04 175.62,-192.04 175.62,-197.96 175.62,-197.96 175.62,-200.92 172.67,-203.88 169.71,-203.88"/>
<text xml:space="preserve" text-anchor="start" x="117.38" y="-191.32" font-family="Helvetica,sans-Serif" font-size="9.00">HHFusion.ts</text>
</a>
</g>
</g>
<!-- src/main.ts&#45;&gt;src/reactions/rules/HHFusion.ts -->
<g id="edge14" class="edge">
<title>src/main.ts&#45;&gt;src/reactions/rules/HHFusion.ts</title>
<path fill="none" stroke="#000000" stroke-width="2" stroke-opacity="0.200000" d="M70.38,-184.06C79.63,-185.48 90.25,-187.12 100.41,-188.68"/>
<polygon fill="#000000" fill-opacity="0.200000" stroke="#000000" stroke-width="2" stroke-opacity="0.200000" points="99.94,-190.73 106.19,-189.57 100.58,-186.58 99.94,-190.73"/>
</g>
<!-- src/reactions/rules/OxidationToWater.ts -->
<g id="node17" class="node">
<title>src/reactions/rules/OxidationToWater.ts</title>
<g id="a_node17"><a xlink:href="src/reactions/rules/OxidationToWater.ts" xlink:title="OxidationToWater.ts">
<path fill="#ddfeff" stroke="black" d="M185.08,-173.88C185.08,-173.88 99.92,-173.88 99.92,-173.88 96.96,-173.88 94,-170.92 94,-167.96 94,-167.96 94,-162.04 94,-162.04 94,-159.08 96.96,-156.12 99.92,-156.12 99.92,-156.12 185.08,-156.12 185.08,-156.12 188.04,-156.12 191,-159.08 191,-162.04 191,-162.04 191,-167.96 191,-167.96 191,-170.92 188.04,-173.88 185.08,-173.88"/>
<text xml:space="preserve" text-anchor="start" x="102" y="-161.32" font-family="Helvetica,sans-Serif" font-size="9.00">OxidationToWater.ts</text>
</a>
</g>
</g>
<!-- src/main.ts&#45;&gt;src/reactions/rules/OxidationToWater.ts -->
<g id="edge15" class="edge">
<title>src/main.ts&#45;&gt;src/reactions/rules/OxidationToWater.ts</title>
<path fill="none" stroke="#000000" stroke-width="2" stroke-opacity="0.200000" d="M70.38,-175.94C75.01,-175.23 79.98,-174.47 85.06,-173.68"/>
<polygon fill="#000000" fill-opacity="0.200000" stroke="#000000" stroke-width="2" stroke-opacity="0.200000" points="85.08,-175.81 90.69,-172.82 84.44,-171.65 85.08,-175.81"/>
</g>
<!-- src/simulator/MizuSimulator.ts -->
<g id="node18" class="node">
<title>src/simulator/MizuSimulator.ts</title>
<g id="a_node18"><a xlink:href="src/simulator/MizuSimulator.ts" xlink:title="MizuSimulator.ts">
<path fill="#ddfeff" stroke="black" d="M178.33,-489.88C178.33,-489.88 106.67,-489.88 106.67,-489.88 103.71,-489.88 100.75,-486.92 100.75,-483.96 100.75,-483.96 100.75,-478.04 100.75,-478.04 100.75,-475.08 103.71,-472.12 106.67,-472.12 106.67,-472.12 178.33,-472.12 178.33,-472.12 181.29,-472.12 184.25,-475.08 184.25,-478.04 184.25,-478.04 184.25,-483.96 184.25,-483.96 184.25,-486.92 181.29,-489.88 178.33,-489.88"/>
<text xml:space="preserve" text-anchor="start" x="108.75" y="-477.32" font-family="Helvetica,sans-Serif" font-size="9.00">MizuSimulator.ts</text>
</a>
</g>
</g>
<!-- src/main.ts&#45;&gt;src/simulator/MizuSimulator.ts -->
<g id="edge16" class="edge">
<title>src/main.ts&#45;&gt;src/simulator/MizuSimulator.ts</title>
<path fill="none" stroke="#000000" stroke-width="2" stroke-opacity="0.200000" d="M43.71,-189.21C42.48,-233.73 39.5,-426.11 78,-468 81.85,-472.19 86.65,-475.23 91.88,-477.41"/>
<polygon fill="#000000" fill-opacity="0.200000" stroke="#000000" stroke-width="2" stroke-opacity="0.200000" points="91.14,-479.38 97.5,-479.24 92.44,-475.39 91.14,-479.38"/>
</g>
<!-- src/simulator/World.ts -->
<g id="node19" class="node">
<title>src/simulator/World.ts</title>
<g id="a_node19"><a xlink:href="src/simulator/World.ts" xlink:title="World.ts">
<path fill="#ddfeff" stroke="black" d="M306.33,-489.88C306.33,-489.88 264.17,-489.88 264.17,-489.88 261.21,-489.88 258.25,-486.92 258.25,-483.96 258.25,-483.96 258.25,-478.04 258.25,-478.04 258.25,-475.08 261.21,-472.12 264.17,-472.12 264.17,-472.12 306.33,-472.12 306.33,-472.12 309.29,-472.12 312.25,-475.08 312.25,-478.04 312.25,-478.04 312.25,-483.96 312.25,-483.96 312.25,-486.92 309.29,-489.88 306.33,-489.88"/>
<text xml:space="preserve" text-anchor="start" x="268.75" y="-477.32" font-family="Helvetica,sans-Serif" font-size="9.00">World.ts</text>
</a>
</g>
</g>
<!-- src/main.ts&#45;&gt;src/simulator/World.ts -->
<g id="edge17" class="edge">
<title>src/main.ts&#45;&gt;src/simulator/World.ts</title>
<path fill="none" stroke="#000000" stroke-width="2" stroke-opacity="0.200000" d="M44.27,-189.1C45.84,-238.69 54.5,-474.89 78,-496 127.58,-540.53 213.7,-512.6 257.3,-493.87"/>
<polygon fill="#000000" fill-opacity="0.200000" stroke="#000000" stroke-width="2" stroke-opacity="0.200000" points="258.03,-495.85 262.66,-491.5 256.33,-492.01 258.03,-495.85"/>
</g>
<!-- src/particles/ParticleFactory.ts&#45;&gt;src/core/Random.ts -->
<g id="edge32" class="edge">
<title>src/particles/ParticleFactory.ts&#45;&gt;src/core/Random.ts</title>
<path fill="none" stroke="#000000" stroke-opacity="0.200000" d="M290.07,-340.31C299.55,-361.99 326.45,-415.52 368.5,-436 469.5,-485.18 548.87,-469.99 614.75,-379 641.91,-341.49 598.51,-206.92 627.75,-171 631.6,-166.27 636.88,-163.05 642.6,-160.87"/>
<polygon fill="none" stroke="#000000" stroke-opacity="0.200000" points="642.88,-162.98 648,-159.22 641.65,-158.97 642.88,-162.98"/>
</g>
<!-- src/particles/ParticleFactory.ts&#45;&gt;src/core/behaviors/FallAndSway.ts -->
<g id="edge30" class="edge">
<title>src/particles/ParticleFactory.ts&#45;&gt;src/core/behaviors/FallAndSway.ts</title>
<path fill="none" stroke="#000000" stroke-width="2" stroke-opacity="0.200000" d="M328.45,-324.31C338.3,-321.05 348.08,-316.2 355.5,-309 368.01,-296.86 355.04,-283.07 368.5,-272 404.39,-242.47 427.3,-269.75 472,-257 491.81,-251.35 513.09,-241.95 529.06,-234.18"/>
<polygon fill="#000000" fill-opacity="0.200000" stroke="#000000" stroke-width="2" stroke-opacity="0.200000" points="529.74,-236.19 534.18,-231.64 527.87,-232.42 529.74,-236.19"/>
</g>
<!-- src/particles/ParticleFactory.ts&#45;&gt;src/core/behaviors/RandomWalk.ts -->
<g id="edge31" class="edge">
<title>src/particles/ParticleFactory.ts&#45;&gt;src/core/behaviors/RandomWalk.ts</title>
<path fill="none" stroke="#000000" stroke-width="2" stroke-opacity="0.200000" d="M328.54,-324.87C338.51,-321.6 348.31,-316.62 355.5,-309 371.55,-291.99 351.11,-273.64 368.5,-258 403.06,-226.91 438.02,-274.71 472,-243 484.3,-231.52 468.02,-217.81 480,-206 487.18,-198.92 496.72,-194.73 506.56,-192.34"/>
<polygon fill="#000000" fill-opacity="0.200000" stroke="#000000" stroke-width="2" stroke-opacity="0.200000" points="506.77,-194.44 512.27,-191.24 505.98,-190.31 506.77,-194.44"/>
</g>
<!-- src/particles/ParticleFactory.ts&#45;&gt;src/core/renderers/DropletRenderer.ts -->
<g id="edge33" class="edge">
<title>src/particles/ParticleFactory.ts&#45;&gt;src/core/renderers/DropletRenderer.ts</title>
<path fill="none" stroke="#000000" stroke-width="2" stroke-opacity="0.200000" d="M328.21,-321.73C337.64,-318.57 347.28,-314.41 355.5,-309 362.87,-304.15 360.61,-297.94 368.5,-294 408.99,-273.77 460.75,-271.77 499.36,-274.12"/>
<polygon fill="#000000" fill-opacity="0.200000" stroke="#000000" stroke-width="2" stroke-opacity="0.200000" points="498.73,-276.18 504.86,-274.51 499.02,-271.99 498.73,-276.18"/>
</g>
<!-- src/particles/ParticleFactory.ts&#45;&gt;src/core/renderers/SubscriptTextRenderer.ts -->
<g id="edge34" class="edge">
<title>src/particles/ParticleFactory.ts&#45;&gt;src/core/renderers/SubscriptTextRenderer.ts</title>
<path fill="none" stroke="#000000" stroke-width="2" stroke-opacity="0.200000" d="M318.6,-321.64C330.34,-318 343.62,-313.61 355.5,-309 361.43,-306.7 362.28,-304.37 368.5,-303 409.54,-293.99 456.86,-296.2 493.48,-300.55"/>
<polygon fill="#000000" fill-opacity="0.200000" stroke="#000000" stroke-width="2" stroke-opacity="0.200000" points="492.86,-302.59 499.07,-301.26 493.38,-298.43 492.86,-302.59"/>
</g>
<!-- src/particles/ParticleFactory.ts&#45;&gt;src/core/renderers/TextRenderer.ts -->
<g id="edge35" class="edge">
<title>src/particles/ParticleFactory.ts&#45;&gt;src/core/renderers/TextRenderer.ts</title>
<path fill="none" stroke="#000000" stroke-width="2" stroke-opacity="0.200000" d="M328.32,-321.82C341.15,-319.43 355.35,-317.19 368.5,-316 414.31,-311.86 430.54,-296.07 472,-316 477.13,-318.47 475.14,-323.04 480,-326 487.84,-330.78 496.93,-334.07 506,-336.33"/>
<polygon fill="#000000" fill-opacity="0.200000" stroke="#000000" stroke-width="2" stroke-opacity="0.200000" points="505.38,-338.34 511.69,-337.55 506.27,-334.24 505.38,-338.34"/>
</g>
<!-- src/particles/H.ts -->
<g id="node20" class="node">
<title>src/particles/H.ts</title>
<g id="a_node20"><a xlink:href="src/particles/H.ts" xlink:title="H.ts">
<path fill="#ddfeff" stroke="black" d="M437.33,-429.88C437.33,-429.88 395.17,-429.88 395.17,-429.88 392.21,-429.88 389.25,-426.92 389.25,-423.96 389.25,-423.96 389.25,-418.04 389.25,-418.04 389.25,-415.08 392.21,-412.12 395.17,-412.12 395.17,-412.12 437.33,-412.12 437.33,-412.12 440.29,-412.12 443.25,-415.08 443.25,-418.04 443.25,-418.04 443.25,-423.96 443.25,-423.96 443.25,-426.92 440.29,-429.88 437.33,-429.88"/>
<text xml:space="preserve" text-anchor="start" x="408.38" y="-417.32" font-family="Helvetica,sans-Serif" font-size="9.00">H.ts</text>
</a>
</g>
</g>
<!-- src/particles/ParticleFactory.ts&#45;&gt;src/particles/H.ts -->
<g id="edge36" class="edge">
<title>src/particles/ParticleFactory.ts&#45;&gt;src/particles/H.ts</title>
<path fill="none" stroke="#000000" stroke-width="2" stroke-opacity="0.200000" d="M293.92,-340.21C307.44,-355.88 337.06,-387.79 368.5,-406 372.37,-408.24 376.61,-410.19 380.91,-411.88"/>
<polygon fill="#000000" fill-opacity="0.200000" stroke="#000000" stroke-width="2" stroke-opacity="0.200000" points="379.96,-413.77 386.32,-413.79 381.37,-409.81 379.96,-413.77"/>
</g>
<!-- src/particles/H2.ts -->
<g id="node21" class="node">
<title>src/particles/H2.ts</title>
<g id="a_node21"><a xlink:href="src/particles/H2.ts" xlink:title="H2.ts">
<path fill="#ddfeff" stroke="black" d="M437.33,-399.88C437.33,-399.88 395.17,-399.88 395.17,-399.88 392.21,-399.88 389.25,-396.92 389.25,-393.96 389.25,-393.96 389.25,-388.04 389.25,-388.04 389.25,-385.08 392.21,-382.12 395.17,-382.12 395.17,-382.12 437.33,-382.12 437.33,-382.12 440.29,-382.12 443.25,-385.08 443.25,-388.04 443.25,-388.04 443.25,-393.96 443.25,-393.96 443.25,-396.92 440.29,-399.88 437.33,-399.88"/>
<text xml:space="preserve" text-anchor="start" x="405.75" y="-387.32" font-family="Helvetica,sans-Serif" font-size="9.00">H2.ts</text>
</a>
</g>
</g>
<!-- src/particles/ParticleFactory.ts&#45;&gt;src/particles/H2.ts -->
<g id="edge37" class="edge">
<title>src/particles/ParticleFactory.ts&#45;&gt;src/particles/H2.ts</title>
<path fill="none" stroke="#000000" stroke-width="2" stroke-opacity="0.200000" d="M301.28,-340.36C317.44,-350.15 344.12,-365.53 368.5,-376 372.41,-377.68 376.57,-379.27 380.73,-380.75"/>
<polygon fill="#000000" fill-opacity="0.200000" stroke="#000000" stroke-width="2" stroke-opacity="0.200000" points="379.98,-382.71 386.34,-382.64 381.33,-378.73 379.98,-382.71"/>
</g>
<!-- src/particles/H2o.ts -->
<g id="node22" class="node">
<title>src/particles/H2o.ts</title>
<g id="a_node22"><a xlink:href="src/particles/H2o.ts" xlink:title="H2o.ts">
<path fill="#ddfeff" stroke="black" d="M437.33,-339.88C437.33,-339.88 395.17,-339.88 395.17,-339.88 392.21,-339.88 389.25,-336.92 389.25,-333.96 389.25,-333.96 389.25,-328.04 389.25,-328.04 389.25,-325.08 392.21,-322.12 395.17,-322.12 395.17,-322.12 437.33,-322.12 437.33,-322.12 440.29,-322.12 443.25,-325.08 443.25,-328.04 443.25,-328.04 443.25,-333.96 443.25,-333.96 443.25,-336.92 440.29,-339.88 437.33,-339.88"/>
<text xml:space="preserve" text-anchor="start" x="403.12" y="-327.32" font-family="Helvetica,sans-Serif" font-size="9.00">H2o.ts</text>
</a>
</g>
</g>
<!-- src/particles/ParticleFactory.ts&#45;&gt;src/particles/H2o.ts -->
<g id="edge38" class="edge">
<title>src/particles/ParticleFactory.ts&#45;&gt;src/particles/H2o.ts</title>
<path fill="none" stroke="#000000" stroke-width="2" stroke-opacity="0.200000" d="M328.49,-331C345.2,-331 364.18,-331 380.11,-331"/>
<polygon fill="#000000" fill-opacity="0.200000" stroke="#000000" stroke-width="2" stroke-opacity="0.200000" points="380.08,-333.1 386.08,-331 380.08,-328.9 380.08,-333.1"/>
</g>
<!-- src/particles/O.ts -->
<g id="node23" class="node">
<title>src/particles/O.ts</title>
<g id="a_node23"><a xlink:href="src/particles/O.ts" xlink:title="O.ts">
<path fill="#ddfeff" stroke="black" d="M437.33,-369.88C437.33,-369.88 395.17,-369.88 395.17,-369.88 392.21,-369.88 389.25,-366.92 389.25,-363.96 389.25,-363.96 389.25,-358.04 389.25,-358.04 389.25,-355.08 392.21,-352.12 395.17,-352.12 395.17,-352.12 437.33,-352.12 437.33,-352.12 440.29,-352.12 443.25,-355.08 443.25,-358.04 443.25,-358.04 443.25,-363.96 443.25,-363.96 443.25,-366.92 440.29,-369.88 437.33,-369.88"/>
<text xml:space="preserve" text-anchor="start" x="408.38" y="-357.32" font-family="Helvetica,sans-Serif" font-size="9.00">O.ts</text>
</a>
</g>
</g>
<!-- src/particles/ParticleFactory.ts&#45;&gt;src/particles/O.ts -->
<g id="edge39" class="edge">
<title>src/particles/ParticleFactory.ts&#45;&gt;src/particles/O.ts</title>
<path fill="none" stroke="#000000" stroke-width="2" stroke-opacity="0.200000" d="M326.36,-340.33C343.74,-344.37 363.9,-349.06 380.62,-352.95"/>
<polygon fill="#000000" fill-opacity="0.200000" stroke="#000000" stroke-width="2" stroke-opacity="0.200000" points="379.75,-354.9 386.07,-354.21 380.7,-350.81 379.75,-354.9"/>
</g>
<!-- src/physics/GridCollisionDetector.ts&#45;&gt;src/core/Particle.ts -->
<g id="edge43" class="edge">
<title>src/physics/GridCollisionDetector.ts&#45;&gt;src/core/Particle.ts</title>
<path fill="none" stroke="#000000" stroke-opacity="0.200000" d="M341.98,-60.2C346.71,-58.54 351.3,-56.5 355.5,-54 363.37,-49.31 360.23,-41.94 368.5,-38 389.27,-28.12 455.14,-22.36 472,-38 489.32,-54.06 464.13,-126.5 480,-144 489.9,-154.92 505.44,-158.75 519.77,-159.62"/>
<polygon fill="none" stroke="#000000" stroke-opacity="0.200000" points="519.54,-161.71 525.6,-159.78 519.66,-157.52 519.54,-161.71"/>
</g>
<!-- src/physics/GridCollisionDetector.ts&#45;&gt;src/physics/SpatialGrid.ts -->
<g id="edge45" class="edge">
<title>src/physics/GridCollisionDetector.ts&#45;&gt;src/physics/SpatialGrid.ts</title>
<path fill="none" stroke="#000000" stroke-opacity="0.200000" d="M342.08,-67C352.5,-67 363.22,-67 373.14,-67"/>
<polygon fill="none" stroke="#000000" stroke-opacity="0.200000" points="373.04,-69.1 379.04,-67 373.04,-64.9 373.04,-69.1"/>
</g>
<!-- src/physics/CollisionDetector.ts -->
<g id="node25" class="node">
<title>src/physics/CollisionDetector.ts</title>
<g id="a_node25"><a xlink:href="src/physics/CollisionDetector.ts" xlink:title="CollisionDetector.ts">
<path fill="#ddfeff" stroke="black" d="M458.08,-105.88C458.08,-105.88 374.42,-105.88 374.42,-105.88 371.46,-105.88 368.5,-102.92 368.5,-99.96 368.5,-99.96 368.5,-94.04 368.5,-94.04 368.5,-91.08 371.46,-88.12 374.42,-88.12 374.42,-88.12 458.08,-88.12 458.08,-88.12 461.04,-88.12 464,-91.08 464,-94.04 464,-94.04 464,-99.96 464,-99.96 464,-102.92 461.04,-105.88 458.08,-105.88"/>
<text xml:space="preserve" text-anchor="start" x="376.5" y="-93.33" font-family="Helvetica,sans-Serif" font-size="9.00">CollisionDetector.ts</text>
</a>
</g>
</g>
<!-- src/physics/GridCollisionDetector.ts&#45;&gt;src/physics/CollisionDetector.ts -->
<g id="edge44" class="edge">
<title>src/physics/GridCollisionDetector.ts&#45;&gt;src/physics/CollisionDetector.ts</title>
<path fill="none" stroke="#000000" stroke-opacity="0.200000" d="M330.26,-76.31C338.65,-78.15 347.35,-80.1 355.5,-82 360.85,-83.25 366.45,-84.6 371.99,-85.96"/>
<polygon fill="none" stroke="#000000" stroke-opacity="0.200000" points="371.16,-87.92 377.49,-87.32 372.17,-83.84 371.16,-87.92"/>
</g>
<!-- src/physics/SpatialGrid.ts&#45;&gt;src/core/Particle.ts -->
<g id="edge46" class="edge">
<title>src/physics/SpatialGrid.ts&#45;&gt;src/core/Particle.ts</title>
<path fill="none" stroke="#000000" stroke-opacity="0.200000" d="M451.96,-70.09C459.54,-72.36 466.83,-76.05 472,-82 490.23,-102.96 460.8,-123.92 480,-144 490.18,-154.65 505.76,-158.45 520.04,-159.37"/>
<polygon fill="none" stroke="#000000" stroke-opacity="0.200000" points="519.77,-161.46 525.83,-159.56 519.91,-157.26 519.77,-161.46"/>
</g>
<!-- src/reactions/ReactionRegistry.ts&#45;&gt;src/core/Particle.ts -->
<g id="edge47" class="edge">
<title>src/reactions/ReactionRegistry.ts&#45;&gt;src/core/Particle.ts</title>
<path fill="none" stroke="#000000" stroke-opacity="0.200000" d="M190.61,-250.37C259.23,-252.81 387.65,-247.79 472,-186 478.1,-181.54 473.91,-175.47 480,-171 491.44,-162.6 506.46,-158.8 520.01,-157.21"/>
<polygon fill="none" stroke="#000000" stroke-opacity="0.200000" points="520.06,-159.31 525.85,-156.67 519.68,-155.13 520.06,-159.31"/>
</g>
<!-- src/reactions/ReactionRule.ts -->
<g id="node26" class="node">
<title>src/reactions/ReactionRule.ts</title>
<g id="a_node26"><a xlink:href="src/reactions/ReactionRule.ts" xlink:title="ReactionRule.ts">
<path fill="#ddfeff" stroke="black" d="M319.96,-184.88C319.96,-184.88 250.54,-184.88 250.54,-184.88 247.58,-184.88 244.62,-181.92 244.62,-178.96 244.62,-178.96 244.62,-173.04 244.62,-173.04 244.62,-170.08 247.58,-167.12 250.54,-167.12 250.54,-167.12 319.96,-167.12 319.96,-167.12 322.92,-167.12 325.88,-170.08 325.88,-173.04 325.88,-173.04 325.88,-178.96 325.88,-178.96 325.88,-181.92 322.92,-184.88 319.96,-184.88"/>
<text xml:space="preserve" text-anchor="start" x="252.62" y="-172.32" font-family="Helvetica,sans-Serif" font-size="9.00">ReactionRule.ts</text>
</a>
</g>
</g>
<!-- src/reactions/ReactionRegistry.ts&#45;&gt;src/reactions/ReactionRule.ts -->
<g id="edge48" class="edge">
<title>src/reactions/ReactionRegistry.ts&#45;&gt;src/reactions/ReactionRule.ts</title>
<path fill="none" stroke="#000000" stroke-opacity="0.200000" d="M190.71,-238.38C193.67,-236.86 196.47,-235.08 199,-233 205.45,-227.69 201.21,-222.02 207,-216 218.81,-203.73 235.2,-194.51 249.84,-188.04"/>
<polygon fill="none" stroke="#000000" stroke-opacity="0.200000" points="250.32,-190.11 255.03,-185.84 248.69,-186.25 250.32,-190.11"/>
</g>
<!-- src/reactions/rules/HHFusion.ts&#45;&gt;src/core/Particle.ts -->
<g id="edge50" class="edge">
<title>src/reactions/rules/HHFusion.ts&#45;&gt;src/core/Particle.ts</title>
<path fill="none" stroke="#000000" stroke-opacity="0.200000" d="M175.91,-196.4C217.58,-197.8 292.11,-198.99 355.5,-193 363.65,-192.23 465.6,-173.45 520.27,-163.33"/>
<polygon fill="none" stroke="#000000" stroke-opacity="0.200000" points="520.33,-165.45 525.84,-162.3 519.56,-161.32 520.33,-165.45"/>
</g>
<!-- src/reactions/rules/HHFusion.ts&#45;&gt;src/particles/ParticleFactory.ts -->
<g id="edge51" class="edge">
<title>src/reactions/rules/HHFusion.ts&#45;&gt;src/particles/ParticleFactory.ts</title>
<path fill="none" stroke="#000000" stroke-opacity="0.200000" d="M175.98,-198.46C183.99,-200.39 192.21,-203.38 199,-208 239.25,-235.39 266.25,-288.58 277.84,-315.13"/>
<polygon fill="none" stroke="#000000" stroke-opacity="0.200000" points="275.83,-315.77 280.1,-320.47 279.69,-314.13 275.83,-315.77"/>
</g>
<!-- src/reactions/rules/HHFusion.ts&#45;&gt;src/reactions/ReactionRule.ts -->
<g id="edge52" class="edge">
<title>src/reactions/rules/HHFusion.ts&#45;&gt;src/reactions/ReactionRule.ts</title>
<path fill="none" stroke="#000000" stroke-opacity="0.200000" d="M175.79,-190.64C193.93,-188.19 216.91,-185.09 237.04,-182.37"/>
<polygon fill="none" stroke="#000000" stroke-opacity="0.200000" points="237.15,-184.48 242.81,-181.59 236.59,-180.32 237.15,-184.48"/>
</g>
<!-- src/reactions/rules/OxidationToWater.ts&#45;&gt;src/core/Particle.ts -->
<g id="edge53" class="edge">
<title>src/reactions/rules/OxidationToWater.ts&#45;&gt;src/core/Particle.ts</title>
<path fill="none" stroke="#000000" stroke-opacity="0.200000" d="M191.32,-160.03C196.6,-159.61 201.91,-159.25 207,-159 321.6,-153.27 457.74,-154.95 520.1,-156.19"/>
<polygon fill="none" stroke="#000000" stroke-opacity="0.200000" points="519.77,-158.29 525.81,-156.31 519.86,-154.09 519.77,-158.29"/>
</g>
<!-- src/reactions/rules/OxidationToWater.ts&#45;&gt;src/particles/ParticleFactory.ts -->
<g id="edge54" class="edge">
<title>src/reactions/rules/OxidationToWater.ts&#45;&gt;src/particles/ParticleFactory.ts</title>
<path fill="none" stroke="#000000" stroke-opacity="0.200000" d="M191.44,-173.38C194.27,-175.2 196.84,-177.39 199,-180 213.92,-198.03 194.67,-265.11 207,-285 216.64,-300.56 233.66,-311.51 249.27,-318.82"/>
<polygon fill="none" stroke="#000000" stroke-opacity="0.200000" points="248.13,-320.61 254.46,-321.12 249.83,-316.77 248.13,-320.61"/>
</g>
<!-- src/reactions/rules/OxidationToWater.ts&#45;&gt;src/reactions/ReactionRule.ts -->
<g id="edge55" class="edge">
<title>src/reactions/rules/OxidationToWater.ts&#45;&gt;src/reactions/ReactionRule.ts</title>
<path fill="none" stroke="#000000" stroke-opacity="0.200000" d="M191.15,-168.72C205.96,-169.88 222.26,-171.16 237.04,-172.31"/>
<polygon fill="none" stroke="#000000" stroke-opacity="0.200000" points="236.5,-174.37 242.64,-172.75 236.83,-170.19 236.5,-174.37"/>
</g>
<!-- src/simulator/MizuSimulator.ts&#45;&gt;src/core/Particle.ts -->
<g id="edge56" class="edge">
<title>src/simulator/MizuSimulator.ts&#45;&gt;src/core/Particle.ts</title>
<path fill="none" stroke="#000000" stroke-opacity="0.200000" d="M143.76,-471.68C145.14,-442.4 153.73,-351.81 207,-311 233.31,-290.84 330.41,-318.66 355.5,-297 373.86,-281.15 351.79,-261.58 368.5,-244 401.59,-209.2 439.83,-248.65 472,-213 484.73,-198.89 466.55,-184.42 480,-171 490.38,-160.65 505.83,-156.66 519.97,-155.45"/>
<polygon fill="none" stroke="#000000" stroke-opacity="0.200000" points="519.82,-157.56 525.7,-155.14 519.59,-153.37 519.82,-157.56"/>
</g>
<!-- src/simulator/MizuSimulator.ts&#45;&gt;src/particles/ParticleFactory.ts -->
<g id="edge57" class="edge">
<title>src/simulator/MizuSimulator.ts&#45;&gt;src/particles/ParticleFactory.ts</title>
<path fill="none" stroke="#000000" stroke-opacity="0.200000" d="M184.52,-475.31C189.68,-473.49 194.66,-471.11 199,-468 221.43,-451.91 259.86,-379.39 276.35,-346.87"/>
<polygon fill="none" stroke="#000000" stroke-opacity="0.200000" points="278.2,-347.87 279.02,-341.57 274.44,-345.98 278.2,-347.87"/>
</g>
<!-- src/simulator/MizuSimulator.ts&#45;&gt;src/reactions/ReactionRegistry.ts -->
<g id="edge59" class="edge">
<title>src/simulator/MizuSimulator.ts&#45;&gt;src/reactions/ReactionRegistry.ts</title>
<path fill="none" stroke="#000000" stroke-opacity="0.200000" d="M142.5,-471.78C142.5,-402.28 142.5,-332.79 142.5,-263.3"/>
<polygon fill="none" stroke="#000000" stroke-opacity="0.200000" points="144.6,-263.65 142.5,-257.65 140.4,-263.65 144.6,-263.65"/>
</g>
<!-- src/simulator/MizuSimulator.ts&#45;&gt;src/simulator/World.ts -->
<g id="edge60" class="edge">
<title>src/simulator/MizuSimulator.ts&#45;&gt;src/simulator/World.ts</title>
<path fill="none" stroke="#000000" stroke-opacity="0.200000" d="M184.59,-481C205.6,-481 230.85,-481 250.67,-481"/>
<polygon fill="none" stroke="#000000" stroke-opacity="0.200000" points="250.47,-483.1 256.47,-481 250.47,-478.9 250.47,-483.1"/>
</g>
<!-- src/simulator/MizuSimulator.ts&#45;&gt;src/physics/CollisionDetector.ts -->
<g id="edge58" class="edge">
<title>src/simulator/MizuSimulator.ts&#45;&gt;src/physics/CollisionDetector.ts</title>
<path fill="none" stroke="#000000" stroke-opacity="0.200000" d="M143.57,-472.03C144.32,-442.12 151.13,-345.21 207,-301 259.05,-259.8 305.24,-328.36 355.5,-285 372.88,-270 361.92,-257 368.5,-235 381.82,-190.44 400.12,-138.71 409.38,-113.09"/>
<polygon fill="none" stroke="#000000" stroke-opacity="0.200000" points="411.25,-114.07 411.32,-107.72 407.3,-112.64 411.25,-114.07"/>
</g>
<!-- src/simulator/World.ts&#45;&gt;src/core/Particle.ts -->
<g id="edge61" class="edge">
<title>src/simulator/World.ts&#45;&gt;src/core/Particle.ts</title>
<path fill="none" stroke="#000000" stroke-opacity="0.200000" d="M312.5,-487.23C353.37,-495.18 431.7,-503.11 472,-459 493.59,-435.37 459.22,-195.35 480,-171 489.66,-159.68 505.33,-155.63 519.8,-154.64"/>
<polygon fill="none" stroke="#000000" stroke-opacity="0.200000" points="519.78,-156.75 525.71,-154.44 519.64,-152.55 519.78,-156.75"/>
</g>
<!-- src/particles/H.ts&#45;&gt;src/core/Particle.ts -->
<g id="edge19" class="edge">
<title>src/particles/H.ts&#45;&gt;src/core/Particle.ts</title>
<path fill="none" stroke="#000000" stroke-opacity="0.200000" d="M443.52,-420.28C454.02,-418.54 465.22,-414.58 472,-406 488.2,-385.5 462.98,-190.82 480,-171 489.69,-159.71 505.37,-155.67 519.83,-154.67"/>
<polygon fill="none" stroke="#000000" stroke-opacity="0.200000" points="519.81,-156.77 525.74,-154.46 519.66,-152.58 519.81,-156.77"/>
</g>
<!-- src/particles/H.ts&#45;&gt;src/core/behaviors/MovementBehavior.ts -->
<g id="edge18" class="edge">
<title>src/particles/H.ts&#45;&gt;src/core/behaviors/MovementBehavior.ts</title>
<path fill="none" stroke="#000000" stroke-opacity="0.200000" d="M443.66,-427.93C486.17,-437.32 569.58,-448.15 614.75,-403 637.16,-380.6 612.57,-288.81 627.75,-261 633.84,-249.84 644.49,-240.76 654.51,-234.09"/>
<polygon fill="none" stroke="#000000" stroke-opacity="0.200000" points="655.38,-236.02 659.34,-231.05 653.14,-232.47 655.38,-236.02"/>
</g>
<!-- src/particles/H.ts&#45;&gt;src/core/renderers/ParticleRenderer.ts -->
<g id="edge20" class="edge">
<title>src/particles/H.ts&#45;&gt;src/core/renderers/ParticleRenderer.ts</title>
<path fill="none" stroke="#000000" stroke-opacity="0.200000" d="M443.53,-420.19C482.39,-418.19 556.81,-411.22 614.75,-387 633.24,-379.27 651.55,-365.38 663.87,-354.88"/>
<polygon fill="none" stroke="#000000" stroke-opacity="0.200000" points="665.13,-356.57 668.26,-351.04 662.37,-353.4 665.13,-356.57"/>
</g>
<!-- src/particles/H2.ts&#45;&gt;src/core/Particle.ts -->
<g id="edge22" class="edge">
<title>src/particles/H2.ts&#45;&gt;src/core/Particle.ts</title>
<path fill="none" stroke="#000000" stroke-opacity="0.200000" d="M443.5,-390.26C454,-388.52 465.2,-384.57 472,-376 486.18,-358.15 465.11,-188.26 480,-171 489.72,-159.73 505.4,-155.7 519.86,-154.7"/>
<polygon fill="none" stroke="#000000" stroke-opacity="0.200000" points="519.84,-156.8 525.76,-154.48 519.69,-152.6 519.84,-156.8"/>
</g>
<!-- src/particles/H2.ts&#45;&gt;src/core/behaviors/MovementBehavior.ts -->
<g id="edge21" class="edge">
<title>src/particles/H2.ts&#45;&gt;src/core/behaviors/MovementBehavior.ts</title>
<path fill="none" stroke="#000000" stroke-opacity="0.200000" d="M443.54,-395.46C491.46,-402.93 590.36,-415.11 614.75,-393 636.59,-373.21 613.54,-286.82 627.75,-261 633.88,-249.86 644.53,-240.78 654.55,-234.11"/>
<polygon fill="none" stroke="#000000" stroke-opacity="0.200000" points="655.41,-236.04 659.37,-231.07 653.18,-232.49 655.41,-236.04"/>
</g>
<!-- src/particles/H2.ts&#45;&gt;src/core/renderers/ParticleRenderer.ts -->
<g id="edge23" class="edge">
<title>src/particles/H2.ts&#45;&gt;src/core/renderers/ParticleRenderer.ts</title>
<path fill="none" stroke="#000000" stroke-opacity="0.200000" d="M443.71,-391.93C482.17,-392.57 555.38,-391.08 614.75,-374 630.21,-369.55 646.3,-361.28 658.52,-354.13"/>
<polygon fill="none" stroke="#000000" stroke-opacity="0.200000" points="659.52,-355.98 663.58,-351.08 657.35,-352.38 659.52,-355.98"/>
</g>
<!-- src/particles/H2o.ts&#45;&gt;src/core/Particle.ts -->
<g id="edge25" class="edge">
<title>src/particles/H2o.ts&#45;&gt;src/core/Particle.ts</title>
<path fill="none" stroke="#000000" stroke-opacity="0.200000" d="M424.83,-321.95C437.1,-306.75 461.04,-274.62 472,-243 477.27,-227.79 469.05,-182.8 480,-171 490.04,-160.17 505.61,-156.15 519.9,-155.05"/>
<polygon fill="none" stroke="#000000" stroke-opacity="0.200000" points="519.82,-157.16 525.72,-154.79 519.63,-152.96 519.82,-157.16"/>
</g>
<!-- src/particles/H2o.ts&#45;&gt;src/core/behaviors/FallAndSway.ts -->
<g id="edge24" class="edge">
<title>src/particles/H2o.ts&#45;&gt;src/core/behaviors/FallAndSway.ts</title>
<path fill="none" stroke="#000000" stroke-opacity="0.200000" d="M425.98,-321.81C436.94,-310.18 456.24,-289.44 472,-271 475.7,-266.67 475.63,-264.64 480,-261 493.58,-249.69 510.86,-240.16 525.34,-233.24"/>
<polygon fill="none" stroke="#000000" stroke-opacity="0.200000" points="525.85,-235.32 530.41,-230.89 524.08,-231.51 525.85,-235.32"/>
</g>
<!-- src/particles/H2o.ts&#45;&gt;src/core/renderers/ParticleRenderer.ts -->
<g id="edge26" class="edge">
<title>src/particles/H2o.ts&#45;&gt;src/core/renderers/ParticleRenderer.ts</title>
<path fill="none" stroke="#000000" stroke-opacity="0.200000" d="M443.73,-334.76C453.2,-336.97 463.6,-340.48 472,-346 476.76,-349.13 474.87,-353.53 480,-356 534.35,-382.12 606.78,-365.79 647.59,-352.66"/>
<polygon fill="none" stroke="#000000" stroke-opacity="0.200000" points="648.11,-354.7 653.15,-350.81 646.79,-350.71 648.11,-354.7"/>
</g>
<!-- src/particles/O.ts&#45;&gt;src/core/Particle.ts -->
<g id="edge28" class="edge">
<title>src/particles/O.ts&#45;&gt;src/core/Particle.ts</title>
<path fill="none" stroke="#000000" stroke-opacity="0.200000" d="M443.47,-360.24C453.97,-358.5 465.17,-354.54 472,-346 484.16,-330.8 467.24,-185.7 480,-171 489.76,-159.77 505.44,-155.73 519.89,-154.73"/>
<polygon fill="none" stroke="#000000" stroke-opacity="0.200000" points="519.87,-156.83 525.79,-154.51 519.72,-152.63 519.87,-156.83"/>
</g>
<!-- src/particles/O.ts&#45;&gt;src/core/behaviors/MovementBehavior.ts -->
<g id="edge27" class="edge">
<title>src/particles/O.ts&#45;&gt;src/core/behaviors/MovementBehavior.ts</title>
<path fill="none" stroke="#000000" stroke-opacity="0.200000" d="M443.57,-367.69C452.63,-370.13 462.81,-373.03 472,-376 475.61,-377.17 476.26,-378.32 480,-379 538.93,-389.69 570.14,-418.96 614.75,-379 634.4,-361.4 614.9,-284.04 627.75,-261 633.94,-249.9 644.61,-240.82 654.61,-234.14"/>
<polygon fill="none" stroke="#000000" stroke-opacity="0.200000" points="655.47,-236.08 659.42,-231.1 653.23,-232.53 655.47,-236.08"/>
</g>
<!-- src/particles/O.ts&#45;&gt;src/core/renderers/ParticleRenderer.ts -->
<g id="edge29" class="edge">
<title>src/particles/O.ts&#45;&gt;src/core/renderers/ParticleRenderer.ts</title>
<path fill="none" stroke="#000000" stroke-opacity="0.200000" d="M443.75,-365.49C481.93,-371.12 554.48,-378.73 614.75,-367 628.47,-364.33 642.98,-358.73 654.72,-353.4"/>
<polygon fill="none" stroke="#000000" stroke-opacity="0.200000" points="655.38,-355.41 659.92,-350.97 653.6,-351.61 655.38,-355.41"/>
</g>
<!-- src/physics/BruteForceCollisionDetector.ts -->
<g id="node24" class="node">
<title>src/physics/BruteForceCollisionDetector.ts</title>
<g id="a_node24"><a xlink:href="src/physics/BruteForceCollisionDetector.ts" xlink:title="BruteForceCollisionDetector.ts">
<path fill="#ddfeff" stroke="black" d="M349.58,-105.88C349.58,-105.88 220.92,-105.88 220.92,-105.88 217.96,-105.88 215,-102.92 215,-99.96 215,-99.96 215,-94.04 215,-94.04 215,-91.08 217.96,-88.12 220.92,-88.12 220.92,-88.12 349.58,-88.12 349.58,-88.12 352.54,-88.12 355.5,-91.08 355.5,-94.04 355.5,-94.04 355.5,-99.96 355.5,-99.96 355.5,-102.92 352.54,-105.88 349.58,-105.88"/>
<text xml:space="preserve" text-anchor="start" x="223" y="-93.33" font-family="Helvetica,sans-Serif" font-size="9.00">BruteForceCollisionDetector.ts</text>
</a>
</g>
</g>
<!-- src/physics/BruteForceCollisionDetector.ts&#45;&gt;src/core/Particle.ts -->
<g id="edge40" class="edge">
<title>src/physics/BruteForceCollisionDetector.ts&#45;&gt;src/core/Particle.ts</title>
<path fill="none" stroke="#000000" stroke-opacity="0.200000" d="M346.86,-87.7C349.93,-86.07 352.84,-84.19 355.5,-82 366.73,-72.78 356.35,-59.98 368.5,-52 387.73,-39.38 455.05,-36.46 472,-52 487.13,-65.87 466.13,-128.88 480,-144 489.96,-154.86 505.51,-158.69 519.83,-159.57"/>
<polygon fill="none" stroke="#000000" stroke-opacity="0.200000" points="519.59,-161.66 525.65,-159.74 519.71,-157.46 519.59,-161.66"/>
</g>
<!-- src/physics/BruteForceCollisionDetector.ts&#45;&gt;src/physics/CollisionDetector.ts -->
<g id="edge41" class="edge">
<title>src/physics/BruteForceCollisionDetector.ts&#45;&gt;src/physics/CollisionDetector.ts</title>
<path fill="none" stroke="#000000" stroke-opacity="0.200000" d="M355.66,-97C357.35,-97 359.05,-97 360.73,-97"/>
<polygon fill="none" stroke="#000000" stroke-opacity="0.200000" points="360.52,-99.1 366.52,-97 360.52,-94.9 360.52,-99.1"/>
</g>
<!-- src/physics/CollisionDetector.ts&#45;&gt;src/core/Particle.ts -->
<g id="edge42" class="edge">
<title>src/physics/CollisionDetector.ts&#45;&gt;src/core/Particle.ts</title>
<path fill="none" stroke="#000000" stroke-opacity="0.200000" d="M426.55,-106.24C438.06,-117.11 458.76,-134.82 480,-144 492.47,-149.39 507.04,-152.55 519.96,-154.39"/>
<polygon fill="none" stroke="#000000" stroke-opacity="0.200000" points="519.63,-156.47 525.84,-155.15 520.16,-152.3 519.63,-156.47"/>
</g>
<!-- src/reactions/ReactionRule.ts&#45;&gt;src/core/Particle.ts -->
<g id="edge49" class="edge">
<title>src/reactions/ReactionRule.ts&#45;&gt;src/core/Particle.ts</title>
<path fill="none" stroke="#000000" stroke-opacity="0.200000" d="M326.1,-173.18C378.69,-169.45 470.39,-162.95 520.05,-159.43"/>
<polygon fill="none" stroke="#000000" stroke-opacity="0.200000" points="520.01,-161.54 525.85,-159.02 519.72,-157.35 520.01,-161.54"/>
</g>
</g>
</svg>
